<svg xmlns="http://www.w3.org/2000/svg" viewBox="0 0 229.33 174"><defs><style>.cls-1{fill:#fff;}</style></defs><title>Zeichenfläche 5</title><g id="Vector_Graphics" data-name="Vector Graphics"><path class="cls-1" d="M104.82,45.69l-3-11.31L108,32.72,111,44l3.62-3.63,4.52,4.51-6.23,6.23,1.58,5.93,8.4-8.4,4.51,4.5-11,11,3.3,12.32,2.47-9.28,6.16,1.66-2.49,9.33,9.08-9.08-4-15L137,52.47l3.07,11.47,4.34-4.34-2.28-8.51,6.16-1.64,1.33,4.95,8.28-8.28,4.51,4.51-8.28,8.28,5,1.33-1.65,6.15L149,64.11l-4.34,4.34,11.47,3.07-1.64,6.17-15-4-9,9,9.27-2.49,1.65,6.15L132,88.85l12.4,3.33,11-11,4.51,4.5-8.4,8.41,5.93,1.58,6.23-6.23,4.5,4.51-3.62,3.63,11.28,3-1.65,6.16-11.28-3,1.33,5L158,110.34l-2.27-8.51-5.93-1.59,3.08,11.48-6.17,1.64-4-15L130.4,95l6.79,6.78-4.51,4.5-6.84-6.83,3.32,12.4,15,4-1.65,6.16L131.06,119l1.59,5.93,8.52,2.28-1.66,6.16L134.56,132l3,11.29L131.42,145l-3-11.29-3.63,3.63-4.5-4.51,6.23-6.23-1.59-5.92-8.4,8.39-4.51-4.5,11-11-3.3-12.32-2.47,9.28-6.16-1.65,2.49-9.35-9.08,9.08,4,15-6.16,1.65-3.07-11.47-4.34,4.33,2.28,8.52-6.16,1.65-1.33-5-8.26,8.26L77,127.08l8.26-8.26-5-1.32,1.65-6.16,8.51,2.27,4.34-4.33L83.29,106.2,85,100l15,4,9-9-9.26,2.5-1.65-6.16,9.34-2.52L95,85.55l-11,11-4.51-4.5,8.4-8.4L82,82.06l-6.22,6.23-4.52-4.51,3.63-3.63-11.31-3L65.2,71l11.31,3L75.18,69l6.16-1.65,2.28,8.51,5.93,1.59L86.47,66l6.17-1.65,4,15L109,82.69l-6.79-6.77,4.51-4.51,6.84,6.83-3.32-12.4-15-4,1.65-6.16,11.48,3.07-1.59-5.92-8.52-2.28,1.66-6.16Zm16.43,49,4.28-4.29L124,84.59,118.12,83l-4.28,4.28,1.57,5.86Z"/></g></svg>