<svg xmlns="http://www.w3.org/2000/svg" viewBox="0 0 212 210.67"><defs><style>.cls-1{fill:#fff;}</style></defs><title>Zeichenfläche 7</title><g id="Vector_Graphics" data-name="Vector Graphics"><polygon class="cls-1" points="57.97 98.09 53.4 102.65 57.01 106.26 49.8 106.26 43.68 112.38 49.69 118.38 57.1 118.38 53.4 122.09 57.96 126.65 68.82 115.84 74.74 125.27 108.48 112.35 74.74 99.45 68.8 108.9 57.97 98.09"/><polygon class="cls-1" points="70.86 148.97 72.53 155.2 77.45 153.88 73.85 160.12 76.09 168.48 84.3 166.28 88.01 159.86 89.36 164.93 95.6 163.25 91.66 148.44 102.79 148.03 108.48 112.35 80.43 135.12 85.64 144.98 70.86 148.97"/><polygon class="cls-1" points="121.37 163.23 127.61 164.9 128.93 159.98 132.53 166.22 140.89 168.47 143.09 160.26 139.38 153.83 144.45 155.19 146.12 148.96 131.32 144.97 136.52 135.12 108.48 112.35 114.16 148.03 125.31 148.44 121.37 163.23"/><polygon class="cls-1" points="158.99 126.63 163.55 122.06 159.95 118.46 167.15 118.46 173.27 112.34 167.27 106.33 159.85 106.33 163.56 102.63 159 98.06 148.14 108.88 142.21 99.45 108.48 112.35 142.21 125.27 148.15 115.82 158.99 126.63"/><polygon class="cls-1" points="146.09 75.75 144.42 69.51 139.5 70.83 143.1 64.59 140.86 56.23 132.65 58.43 128.95 64.86 127.58 59.79 121.36 61.46 125.29 76.27 114.16 76.69 108.48 112.35 136.52 89.59 131.31 79.73 146.09 75.75"/><polygon class="cls-1" points="95.58 61.48 89.35 59.8 88.03 64.73 84.42 58.49 76.06 56.25 73.86 64.45 77.58 70.88 72.51 69.52 70.83 75.76 85.63 79.75 80.43 89.59 108.48 112.35 102.79 76.69 91.64 76.27 95.58 61.48"/></g></svg>