<svg xmlns="http://www.w3.org/2000/svg" viewBox="0 0 179.43 172.65"><defs><style>.cls-1{fill:#fff;}</style></defs><title>Zeichenfläche 6</title><g id="Vector_Graphics" data-name="Vector Graphics"><polygon class="cls-1" points="143.35 102.05 136.14 106.29 141.05 109.17 148.26 104.92 143.35 102.05"/><path class="cls-1" d="M131.59,105.58l8.9-5.22-4.91-2.88-8.9,5.22L123.83,101l8.89-5.22-4.9-2.88-8.9,5.22-11.31-6.63,11.31-6.64,8.9,5.22,4.9-2.88L123.83,82l2.85-1.67,8.9,5.21,4.91-2.88-8.9-5.22,7.81-4.58,0-9.11-7.77-4.52-7.8,4.59V53.36l-4.91,2.88V66.69l-2.85,1.67V57.92l-4.91,2.88V71.24l-11.3,6.64V64.6l8.89-5.22V53.62l-8.89,5.22V55.49l8.89-5.22V44.51l-8.89,5.22V40.57L92.13,36,84.4,40.57v9.16l-8.9-5.22v5.76l8.9,5.22v3.35l-8.9-5.22v5.76l8.9,5.22V77.88L73.09,71.24V60.8l-4.91-2.88V68.36l-2.85-1.67V56.24l-4.91-2.88V63.81l-7.81-4.59-7.77,4.54,0,9.1,7.8,4.57-8.89,5.22,4.9,2.88,8.9-5.21L60.44,82l-8.89,5.22,4.91,2.88,8.89-5.22,11.31,6.64L65.35,98.14l-8.89-5.22L51.55,95.8,60.44,101l-2.85,1.68-8.9-5.22-4.9,2.88,8.89,5.22-7.8,4.58,0,9.11,7.76,4.52,7.81-4.58v10.44l4.91-2.88V116.33l2.85-1.67v10.43l4.9-2.87V111.77l11.31-6.63v13.27l-8.9,5.22v5.76l8.9-5.22v3.35l-8.9,5.23v5.76l8.9-5.23v9.16L92.15,147l7.73-4.57v-9.16l8.89,5.23v-5.76l-8.89-5.23v-3.35l8.89,5.22v-5.76l-8.89-5.22V105.14l11.3,6.63v10.45l4.91,2.87V114.66l2.85,1.67v10.44l4.91,2.88V119.21l7.8,4.58,7.77-4.53,0-9.1ZM86.47,91.51,49.75,70V66.63L52.58,65,89.31,86.51V43.4l2.83-1.65L95,43.4V86.51L131.7,65l2.82,1.67V70L97.8,91.51l36.73,21.56v3.32l-2.82,1.66L95,96.51v43.11l-2.83,1.65-2.83-1.65V96.51L52.58,118.05l-2.83-1.66v-3.32Z"/><polygon class="cls-1" points="126.72 131.34 131.63 134.22 131.63 125.74 126.73 122.87 126.72 131.34"/><polygon class="cls-1" points="101.55 137.64 101.55 143.41 108.77 147.63 108.77 141.88 101.55 137.64"/><polygon class="cls-1" points="75.5 141.88 75.5 147.63 82.72 143.41 82.72 137.64 75.5 141.88"/><polygon class="cls-1" points="52.64 125.74 52.65 134.22 57.55 131.34 57.54 122.87 52.64 125.74"/><polygon class="cls-1" points="40.92 102.05 36.01 104.92 43.23 109.17 48.13 106.29 40.92 102.05"/><polygon class="cls-1" points="48.13 76.73 43.23 73.84 36.01 78.09 40.92 80.97 48.13 76.73"/><polygon class="cls-1" points="57.55 51.68 52.65 48.8 52.64 57.27 57.54 60.15 57.55 51.68"/><polygon class="cls-1" points="82.72 39.61 75.5 35.38 75.5 41.14 82.72 45.37 82.72 39.61"/><polygon class="cls-1" points="108.77 35.38 101.55 39.61 101.55 45.37 108.77 41.14 108.77 35.38"/><polygon class="cls-1" points="131.63 57.27 131.63 48.8 126.72 51.68 126.73 60.15 131.63 57.27"/><polygon class="cls-1" points="143.35 80.97 148.26 78.09 141.05 73.84 136.14 76.73 143.35 80.97"/></g></svg>