<svg xmlns="http://www.w3.org/2000/svg" viewBox="0 0 200.89 206.22"><defs><style>.cls-1{fill:#fff;}</style></defs><title>Zeichenfläche 4</title><g id="Vector_Graphics" data-name="Vector Graphics"><path class="cls-1" d="M77.38,62l1.84,6.84L72.8,67.1l-.37,4.2,8,2.16,1,3.56-9.28-2.51-.32,4.17,10.83,2.95,3.44,12.76-6.62-3-.66,7.27-4.36-4.35,1-11.29-4-1.07-.79,8.61-3.45-3.46L64.33,90l3.46,3.45-8.62.8,1.07,4,11.3-1,4.35,4.35-7.29.67,3.06,6.61L58.9,105.39l-3-10.83-4.17.31,2.52,9.28-3.57-1-2.15-8-4.21.37L46.1,102l-6.84-1.83-1.08,4L45,106l-4.71,4.7,3.46,2.41,5.87-5.87,3.57,1L46.39,115l3.46,2.36,8-7.91,12.76,3.42-6,4.2,6,4.21-5.95,1.59L55.4,116.3l-2.93,2.92,7.06,5-4.71,1.26,1.07,4,4.72-1.26L57,136.06l4,1.07,4.75-10.3,5.94-1.59-3.06,6.64,7.25.66-9.34,9.34L55.66,139l-1.81,3.78,9.29,2.46-2.61,2.61-8-2.15-1.79,3.82,6.43,1.71-5,5,3,3,5-5,1.71,6.43,3.82-1.79-2.15-8,2.6-2.61,2.47,9.29,3.77-1.8-2.86-10.86,9.33-9.35.67,7.25,6.63-3.06-1.59,5.94-10.29,4.75,1.07,4,7.85-3.61-1.27,4.71,4,1.07,1.26-4.72,5,7.07,2.93-2.93-6.55-9.27,1.6-5.94,4.22,6,4.2-5.95,3.41,12.77-7.91,8L96.38,165l6.78-6.82,1,3.57-5.88,5.88,2.43,3.45,4.69-4.71,1.83,6.84,4-1.1-1.84-6.83,6.43,1.74.36-4.2-8-2.15-1-3.58,9.28,2.52.32-4.17-10.84-3-3.43-12.76,6.61,3.06.67-7.28,4.35,4.35-1,11.29,4,1.08.79-8.62,3.45,3.46,2.93-2.92-3.46-3.46,8.62-.79-1.08-4-11.29,1-4.35-4.35,7.28-.67L117,125.25l12.76,3.43,2.95,10.83,4.17-.31-2.51-9.29,3.56,1,2.15,8,4.21-.36-1.74-6.43,6.84,1.84,1.08-4.06-6.84-1.82,4.72-4.7L144.85,121,139,126.83l-3.57-1,6.82-6.78-3.45-2.37-8,7.91L118,121.24l6-4.21-6-4.21,5.95-1.59,9.26,6.54,2.92-2.93-7.06-5,4.72-1.26-1.07-4L128,105.87,131.63,98l-4-1.07-4.75,10.31-5.94,1.59,3.06-6.64-7.25-.67,9.34-9.33L133,95.05l1.81-3.77-9.3-2.46,2.61-2.62,8,2.16,1.79-3.83-6.43-1.71,5-5-3-3-5,5-1.71-6.43L123,75.22l2.15,8-2.61,2.62-2.46-9.3-3.77,1.81,2.86,10.86-9.34,9.35-.66-7.25-6.63,3.06,1.59-5.94,10.3-4.76-1.07-4-7.86,3.62,1.27-4.72-4-1.07-1.27,4.73-5-7.07-2.92,2.93,6.55,9.26-1.6,6-4.21-6-4.21,6L86.68,80.55l7.91-8-2.36-3.45-6.78,6.81-1-3.56,5.88-5.88L88,63l-4.7,4.71-1.83-6.84ZM87.46,99.52l2.85,10.59-7.76-7.75L83,97.45ZM76.78,110.19l-2.06-4.46,4.92-.45L87.39,113ZM97.14,98.45,94.3,109.06,91.46,98.44l2.84-4ZM75.72,119.88l-4-2.85,4-2.83L86.31,117Zm3.9,8.91-4.89-.44,2.07-4.49L87.4,121Zm26.43-26.45-7.75,7.77,2.84-10.59,4.47-2.07Zm2.94,2.94,4.89.44-2.07,4.49L101.22,113ZM82.55,131.72,90.31,124l-2.84,10.59L83,136.61Zm30.34-17.52,4,2.83-4,2.83L102.3,117ZM91.47,135.61,94.31,125l2.83,10.61-2.83,4Zm20.37-11.74,2,4.46-4.91.45L101.22,121Zm-10.68,10.68L98.31,124l7.75,7.75-.45,4.9Z"/></g></svg>