<svg xmlns="http://www.w3.org/2000/svg" viewBox="0 0 86.4 86.4"><defs><style>.cls-1,.cls-3{fill:#fff;}.cls-2{fill:#d10c0c;}.cls-2,.cls-3{fill-rule:evenodd;}</style></defs><title>Zeichenfläche 14</title><g id="Ńëîé_1" data-name="Ńëîé 1"><rect class="cls-1" width="86.4" height="86.4"/><path class="cls-2" d="M30.7,27h3.69V21.79L33,15.48A1.39,1.39,0,0,1,33.5,14a3.34,3.34,0,0,1,2.13-.66H50.77A3.34,3.34,0,0,1,52.9,14a1.43,1.43,0,0,1,.52,1.49l-1.2,6.31V27H55.7c3.42,0,7.52,4.17,7.92,7.28L67,60.58c.72,5.57-5,10.2-11.08,10.2H30.47c-6.09,0-11.8-4.63-11.08-10.2l3.39-26.34c.4-3.12,4.5-7.28,7.92-7.28Zm5.58,0h14V22.31h-14Z"/><path class="cls-3" d="M42.5,43.12V47l-.21.1-2.75-2.73a.12.12,0,0,1,0-.09l0-3.86.22-.1L42.46,43l0,.09Zm-4.38-4.2Zm-3.72,1.2Zm2.73,3.62ZM31.2,45.67Zm.24,2.56Zm-.63.63ZM38,62Zm2-1.18Zm2.56-.24Zm.64.63Zm5-2.44Zm7.31-9.94Zm-2-3.46Zm-1.68-5.26Zm-2.37-2.39Zm-1.18-2Zm-6,5.37-2.62-2.61c-.14-.13.13-.22.26-.74a1.63,1.63,0,1,0-1.8,1.21.14.14,0,0,1,.11.13v3.69l-.21.09L35.3,40.12a.63.63,0,0,0-.9,0,.64.64,0,0,0,0,.9l2.74,2.72L37,44H33.35c-.25,0,0-.4-.53-1a1.64,1.64,0,1,0-1.62,2.68l.73,0c.59-.13.68-.44.83-.3L35.38,48l-.09.21-3.85,0a.63.63,0,0,0-.63.63.64.64,0,0,0,.64.64h3.84l.09.21-2.6,2.62c-.14.14-.24-.14-.74-.27a1.63,1.63,0,1,0,1.17,2l0-.18a.13.13,0,0,1,.12-.11h3.69l.1.21-2.71,2.73a.64.64,0,0,0,.9.9l2.71-2.73.22.09v3.68c0,.25-.4,0-1,.54A1.63,1.63,0,0,0,38,62h0a1.69,1.69,0,0,0,1.21-.19,1.6,1.6,0,0,0,.75-1c.26-1-.45-1.37-.27-1.56l2.61-2.62s.21-.12.21.09v3.85a.64.64,0,0,0,.64.63.63.63,0,0,0,.63-.64V56.69l.22-.1,2.62,2.61c.14.14-.16.25-.27.74a1.64,1.64,0,1,0,1.9-1.2h-.09a.12.12,0,0,1-.11-.13V54.91l.21-.09L51,57.53a.64.64,0,0,0,.9-.9l-2.73-2.71s-.12-.22.08-.22H53c.25,0,0,.4.54,1a1.64,1.64,0,1,0,.23-2.4.12.12,0,0,1-.17,0l-2.62-2.61.08-.21h3.85a.65.65,0,0,0,.64-.64.64.64,0,0,0-.64-.64H51l-.1-.21,2.61-2.62c.13-.14.25.15.74.27a1.64,1.64,0,1,0-1.22-1.81.13.13,0,0,1-.12.11H49.24l-.1-.21L51.86,41a.63.63,0,0,0,0-.9.62.62,0,0,0-.89,0L48.24,42.8,48,42.71V39c0-.25.39,0,1-.54a1.68,1.68,0,0,0,.49-.81,1.64,1.64,0,0,0-1.18-2,1.67,1.67,0,0,0-1.24.18,1.64,1.64,0,0,0-.47,2.39.12.12,0,0,1,0,.17L44,41.05s-.22.12-.22-.09V37.11a.63.63,0,0,0-.63-.63.64.64,0,0,0-.64.64V41l-.21.1ZM43.78,47V43.12a.11.11,0,0,1,0-.09l2.73-2.75.21.09v3.86a.17.17,0,0,1,0,.1L44,47.07,43.78,47Zm3.85-1.76ZM44.9,48l2.73-2.74a.1.1,0,0,1,.09,0h3.86l.1.21L49,48.14l-.09,0H45L44.9,48Zm-5.32,5.35,2.73-2.74.21.08v3.87a.1.1,0,0,1,0,.09l-2.73,2.75-.22-.09V53.42a.13.13,0,0,1,0-.1Zm-.92-8.07a.12.12,0,0,0-.1,0H34.7c-.21,0-.09.21-.09.21l2.74,2.73a.13.13,0,0,0,.1,0h3.86L41.4,48l-2.74-2.73Zm-1.21,4.23h3.86l.1.21-2.73,2.75-.09,0H34.72l-.09-.21,2.73-2.74a.1.1,0,0,1,.09,0Zm7.54,0,3.87,0a.18.18,0,0,1,.09,0l2.75,2.73s.11.21-.09.21H47.74s-.06,0-.09,0L44.9,49.67l.09-.21Zm-1.15,5.16Zm0-.09,0-3.86.22-.1,2.74,2.73,0,.09v3.86l-.21.1-2.75-2.73A.12.12,0,0,1,43.81,54.53Z"/></g></svg>