<svg xmlns="http://www.w3.org/2000/svg" viewBox="0 0 86.4 86.4"><defs><style>.cls-1{fill:#fff;}.cls-2{fill:#d10c0c;fill-rule:evenodd;}</style></defs><title>Zeichenfläche 22</title><g id="Ńëîé_1" data-name="Ńëîé 1"><rect class="cls-1" width="86.4" height="86.4"/><path class="cls-2" d="M66.65,37.08a23.45,23.45,0,1,0-43,12.9,6.39,6.39,0,0,1,4.49-2,17.8,17.8,0,0,1,7.73,1.22,17.92,17.92,0,0,1,6.62,4.16,11.17,11.17,0,0,1,.75.9,9.41,9.41,0,0,1,.75-.9,17.92,17.92,0,0,1,6.62-4.16,17.78,17.78,0,0,1,7.73-1.22,6.41,6.41,0,0,1,4.49,2,23.34,23.34,0,0,0,3.86-12.9ZM43.13,60.53h.14l-.07-.06-.07.06Zm6.79-6.07a8.64,8.64,0,0,1,3.69-.61c.27,0,1.16.18,1.28.5s-.45,1-.64,1.21a9.59,9.59,0,0,1-6.85,2.58c-.28,0-1.17-.18-1.29-.5s.45-1,.64-1.22a8.7,8.7,0,0,1,3.17-2Zm-13.45,0a8.66,8.66,0,0,1,3.18,2c.18.2.76.9.64,1.22s-1,.47-1.29.5a8.75,8.75,0,0,1-3.68-.61,8.56,8.56,0,0,1-3.17-2c-.19-.2-.76-.9-.64-1.21s1-.47,1.28-.5a8.57,8.57,0,0,1,3.68.61ZM60.9,38.41A2.93,2.93,0,1,1,58,41.34a2.93,2.93,0,0,1,2.93-2.93ZM43.2,25.11a12,12,0,1,1-12,12,12,12,0,0,1,12-12Zm11.85-4.66a3.7,3.7,0,1,1-3.7,3.7,3.7,3.7,0,0,1,3.7-3.7ZM35,17.9A2.93,2.93,0,1,1,32,20.83,2.93,2.93,0,0,1,35,17.9ZM25.24,34.66a3.7,3.7,0,1,1-3.7,3.7A3.69,3.69,0,0,1,25.24,34.66Z"/><path class="cls-2" d="M43.13,57.09c-3.67,5.73-14,6.16-17.42,15.68h8.37c.87-3.49,2.62-5.35,5.27-8.11S43.09,60.61,43.13,57.09Z"/><path class="cls-2" d="M43.26,57.09c3.68,5.73,14,6.16,17.43,15.68H52.32c-.87-3.49-2.62-5.35-5.27-8.11S43.31,60.61,43.26,57.09Z"/><path class="cls-2" d="M54.48,59.57c5.19-2,8.62-5.59,7.67-8.13s-5.94-3-11.13-1.08-8.62,5.58-7.66,8.13,5.93,3,11.12,1.08Zm-5-6.32c3.09-1.16,6.06-.87,6.63.64s-1.48,3.69-4.57,4.85-6.06.87-6.63-.65S46.38,54.41,49.47,53.25Z"/><path class="cls-2" d="M31.92,59.57c-5.19-2-8.62-5.59-7.67-8.13s5.94-3,11.12-1.08S44,55.94,43,58.49s-5.93,3-11.12,1.08Zm5-6.32c-3.1-1.16-6.06-.87-6.63.64s1.48,3.69,4.57,4.85,6.06.87,6.63-.65S40,54.41,36.93,53.25Z"/></g></svg>