<svg xmlns="http://www.w3.org/2000/svg" viewBox="0 0 86.4 87.39"><defs><style>.cls-1,.cls-3{fill:#fff;}.cls-2{fill:#d10c0c;}.cls-2,.cls-3{fill-rule:evenodd;}</style></defs><title>Zeichenfläche 14</title><g id="Ńëîé_1" data-name="Ńëîé 1"><rect class="cls-1" y="0.99" width="86.4" height="86.4"/><path class="cls-2" d="M30.7,28h3.69V22.78L33,16.47A1.37,1.37,0,0,1,33.5,15a3.29,3.29,0,0,1,2.13-.67H50.77A3.29,3.29,0,0,1,52.9,15a1.4,1.4,0,0,1,.52,1.48l-1.2,6.31V28H55.7c3.42,0,7.52,4.17,7.92,7.28L67,61.57c.72,5.57-5,10.2-11.08,10.2H30.47c-6.09,0-11.8-4.63-11.08-10.2l3.39-26.34c.4-3.12,4.5-7.28,7.92-7.28Zm5.58,0h14V23.3h-14Z"/><path class="cls-3" d="M42.5,44.11V48l-.21.09-2.75-2.73a.12.12,0,0,1,0-.09l0-3.86.22-.1L42.46,44l0,.09Zm-4.38-4.19Zm-3.72,1.2Zm2.73,3.61ZM31.2,46.66Zm.24,2.56Zm-.63.64ZM38,63Zm2-1.18Zm2.56-.24Zm.64.63Zm5-2.44Zm7.31-9.94Zm-2-3.46Zm-1.68-5.26Zm-2.37-2.39Zm-1.18-2Zm-6,5.37-2.62-2.61c-.14-.13.13-.22.26-.74a1.63,1.63,0,1,0-1.8,1.22.13.13,0,0,1,.11.12v3.69l-.21.1L35.3,41.11a.64.64,0,0,0-.91.9l2.74,2.72-.09.21H33.35c-.25,0,0-.39-.53-1a1.64,1.64,0,1,0-1.62,2.68l.73,0c.59-.12.68-.44.83-.29L35.38,49l-.09.22H31.44a.64.64,0,0,0-.63.64.64.64,0,0,0,.64.63h3.84l.09.21-2.6,2.62c-.14.14-.24-.14-.74-.26a1.63,1.63,0,1,0,1.17,2l0-.19a.13.13,0,0,1,.12-.11h3.69l.1.21-2.71,2.73a.64.64,0,0,0,.9.9l2.71-2.73.22.09v3.69c0,.25-.4,0-1,.53A1.63,1.63,0,0,0,38,63h0a1.69,1.69,0,0,0,1.21-.19,1.6,1.6,0,0,0,.75-1c.26-1-.45-1.37-.27-1.56l2.61-2.62s.21-.11.21.09v3.85a.64.64,0,0,0,.64.63.63.63,0,0,0,.63-.64V57.68l.22-.09,2.62,2.6c.14.14-.16.26-.27.74a1.64,1.64,0,1,0,1.9-1.2h-.09a.12.12,0,0,1-.11-.13V55.91l.21-.1L51,58.52a.64.64,0,0,0,.9-.9l-2.73-2.71s-.12-.22.08-.22H53c.25,0,0,.4.54,1a1.63,1.63,0,1,0,.23-2.39.14.14,0,0,1-.17,0l-2.62-2.61.08-.21h3.85a.64.64,0,0,0,.64-.64.63.63,0,0,0-.64-.63H51l-.1-.22,2.61-2.62c.13-.14.25.15.74.27a1.64,1.64,0,1,0-1.22-1.81.12.12,0,0,1-.12.11H49.24l-.1-.21L51.86,42a.63.63,0,0,0,0-.9.64.64,0,0,0-.89,0l-2.72,2.73L48,43.71V40c0-.25.39,0,1-.54a1.64,1.64,0,0,0-.69-2.8,1.67,1.67,0,0,0-1.24.18,1.64,1.64,0,0,0-.47,2.39.12.12,0,0,1,0,.17L44,42s-.22.12-.22-.08V38.11a.64.64,0,1,0-1.27,0V42l-.21.1ZM43.78,48V44.11a.11.11,0,0,1,0-.09l2.73-2.75.21.09v3.87a.16.16,0,0,1,0,.09L44,48.07,43.78,48Zm3.85-1.76ZM44.9,49l2.73-2.74a.1.1,0,0,1,.09,0h3.86l.1.21L49,49.13l-.09,0-3.87,0L44.9,49Zm-5.32,5.35,2.73-2.74.21.09v3.86a.12.12,0,0,1,0,.1l-2.73,2.74-.22-.09V54.41a.13.13,0,0,1,0-.1Zm-.92-8.07a.17.17,0,0,0-.1,0H34.7c-.21,0-.09.21-.09.21l2.74,2.73a.13.13,0,0,0,.1,0h3.86L41.4,49l-2.74-2.73Zm-1.21,4.23h3.86l.1.21-2.73,2.75-.09,0-3.87,0-.09-.22,2.73-2.74a.13.13,0,0,1,.09,0Zm7.54,0h3.87s.06,0,.09,0L51.7,53.2s.11.21-.09.22H47.74a.12.12,0,0,1-.09,0L44.9,50.66l.09-.21Zm-1.15,5.16Zm0-.09,0-3.86.22-.1,2.74,2.73,0,.09v3.87l-.21.09-2.75-2.73A.12.12,0,0,1,43.81,55.52Z"/></g></svg>