<svg xmlns="http://www.w3.org/2000/svg" viewBox="0 0 86.4 86.4"><defs><style>.cls-1{fill:#fff;}.cls-2{fill:#d10c0c;fill-rule:evenodd;}</style></defs><title>Zeichenfläche 24</title><g id="Ńëîé_1" data-name="Ńëîé 1"><rect class="cls-1" width="86.4" height="86.4"/><path class="cls-2" d="M29.2,32.39C26,36.9,25.57,41.58,31.76,46.66A14.43,14.43,0,0,1,24.28,46c-2.82-7.5-.12-11.34,4.92-13.64Zm29.92,36.1L48.88,57l2.93-2.7L62.1,65.83a2,2,0,0,1-3,2.66ZM47.4,58.41,57.62,69.84a4,4,0,1,0,6-5.35L53.3,53,69.51,38A13.13,13.13,0,0,0,51.69,18.7l-2.88,2.66a5.07,5.07,0,1,0,6.87,7.45l2.89-2.66a3,3,0,0,1,4.06,4.4L46.54,45.4,43,41.45a16.52,16.52,0,1,0-5.91,5.45l3.53,3.94L29.7,60.93a5.07,5.07,0,0,0,6.88,7.45l10.82-10Zm-5.28-8.94,2.93-2.7-4.63-5.19a14.45,14.45,0,0,0,2.43-4.27c-7.5,2.82-11.35.11-13.65-4.92-.47,5,1.08,8.9,7.14,10.6l.15.18,5.63,6.3ZM29.2,32.39C24.68,29.18,20,28.75,14.92,35a14.37,14.37,0,0,0,3.19,6.79C19.42,33.84,23.68,31.87,29.2,32.39Zm0,0c.52-5.52-1.45-9.78-9.36-11.09l-.31.27a14.52,14.52,0,0,0-4,5.89C23.05,24.64,26.89,27.35,29.2,32.39Zm0,0c5-2.31,7.74-6.15,4.92-13.65a14.54,14.54,0,0,0-7.48-.63C32.83,23.19,32.4,27.87,29.2,32.39Zm0,0c4.51,3.2,9.19,3.63,14.28-2.57A14.48,14.48,0,0,0,40.28,23c-1.3,7.9-5.57,9.88-11.08,9.36ZM34.81,59l-.34,8.43h0a3,3,0,0,1-3.4-5L34.81,59ZM39.4,63,68.13,36.52l-4,3.72.35-8.67c-.14.16-.29.32-.45.47L49.63,45.3l-.35,8.61-4.94,4.56.35-8.61-4.94,4.56L39.4,63ZM59.5,36.18l-.34,8.62-4.94,4.56.34-8.62,4.94-4.56Zm9.54-.6.55-13.75A11.15,11.15,0,0,1,69,35.58ZM65,18.14l-.3,7.31a4.72,4.72,0,0,0-.41-.5h0a5,5,0,0,0-3.48-1.6,5.09,5.09,0,0,0-.78,0l.24-6.13H61a11.28,11.28,0,0,1,3.95.88Zm-9.53.36-.33,8.07,2.07-1.91-2.89,2.67a3,3,0,1,1-4.13-4.48l2.88-2.67A11.06,11.06,0,0,1,55.46,18.5Z"/></g></svg>