<svg xmlns="http://www.w3.org/2000/svg" viewBox="0 0 86.4 86.4"><defs><style>.cls-1,.cls-3{fill:#fff;}.cls-2{fill:#d10c0c;}.cls-2,.cls-3{fill-rule:evenodd;}</style></defs><title>Zeichenfläche 18</title><g id="Ńëîé_1" data-name="Ńëîé 1"><rect class="cls-1" width="86.4" height="86.4"/><path class="cls-2" d="M39.74,25.86c-.06-.07-.38,0-.85.14h0a7.51,7.51,0,0,0-2.4,1.47h0l-.05,0h0a7.53,7.53,0,0,0-1.79,2.25c-.21.44-.3.75-.24.82s.39,0,.85-.13a7.69,7.69,0,0,0,2.45-1.51,7.49,7.49,0,0,0,1.79-2.25c.21-.44.31-.76.24-.83ZM15.31,52.32a3.34,3.34,0,0,0-.91.25,2.86,2.86,0,0,0-1.84,2.64,5.54,5.54,0,0,0,1.42,4,5.53,5.53,0,0,0,4,1.41H28A2.63,2.63,0,0,0,30.62,58V56.79h.54a9.41,9.41,0,0,1-9.31-8.24,9.51,9.51,0,0,0,14.62-8,9.64,9.64,0,0,0-.33-2.5h4.35V28.88A11,11,0,0,1,39,30.44a9.52,9.52,0,0,1-3.15,1.91,2.68,2.68,0,0,1-3-.44,2.7,2.7,0,0,1-.08-3,9.6,9.6,0,0,1,2.24-2.85h0l0,0,0,0a11.22,11.22,0,0,1,1.63-1.19,10.42,10.42,0,0,1-1.66-1.21,9.75,9.75,0,0,1-2.28-2.89,2.72,2.72,0,0,1,.08-3,2.7,2.7,0,0,1,3-.44h0A9.46,9.46,0,0,1,39,19.12l0,0,0,0h0a9.69,9.69,0,0,1,2.13,2.64,3.65,3.65,0,0,1,2.91-1.45H57.41A3.63,3.63,0,0,1,61,24V41.08l-.22,0L60.44,41l-.37,0-.18,0h-.6a9.71,9.71,0,0,0-2.83.43l-.44.15c-.29.11-.57.23-.85.36l-.41.21-.2.12c-.14.07-.27.15-.4.23l-.18.12-.2.14-.36.28-.18.14a3.17,3.17,0,0,0-.34.3l-.17.15-.16.16c-.06,0-.11.11-.16.16l-.16.17-.15.17-.15.18-.13.16,0,0-.12.17a1.33,1.33,0,0,0-.14.19l-.13.18-.13.2-.12.18-.11.2-.12.21-.11.21-.1.19c0,.08-.07.15-.1.22l-.09.21-.09.22-.08.2c0,.09-.06.16-.08.24a1.42,1.42,0,0,0-.07.22,1.87,1.87,0,0,0-.07.22l-.06.23-.06.23c0,.08,0,.15-.05.23s0,.16,0,.23a2,2,0,0,0,0,.24,2,2,0,0,1,0,.24,1.64,1.64,0,0,1,0,.23,2,2,0,0,0,0,.25c0,.08,0,.16,0,.24s0,.16,0,.24v1.29l0,.13,0,.13v.13l0,.12,0,.13,0,.13,0,.12,0,.13,0,.12,0,.12,0,.13,0,.12,0,.12,0,.12,0,.13,0,.11,0,.12,0,.12,0,.12.05.12,0,.11,0,.12.05.11,0,.12.06.11,0,.11.06.12,0,.11.06.1.06.11.06.11.07.11.06.11.07.1.06.11.07.1.07.1.07.1.07.1.07.1.08.1.07.1.08.1.08.09.08.1.08.09.08.09v0h1.36V58a2.63,2.63,0,0,0,2.62,2.62h6.05l.14,0,.14,0,.14,0,.14,0,.14,0,.14,0,.14,0h0l.14,0h0l.14,0,.14,0,.14,0,.14,0,.14,0h0l.14,0,.13,0,.14.05h0l.13,0h0l.14,0,.13.05h0l.13,0h0l.13.06h0l.12.06.13.06.12.06.13.07.12.06h0l.12.07.11.07.12.07.11.07.11.07h0l.1.08.11.08h0l.1.08h0l.09.08h0l.1.08h0l.09.08.09.09h0l.08.08.09.09.07.09h0l.08.09h0l.07.1.07.09h0l.06.09h0l.06.1a.47.47,0,0,1,0,.1l.05.1a.31.31,0,0,1,0,.1h0l0,.1h0a.42.42,0,0,1,0,.1h0l0,.11,0,.1a.43.43,0,0,1,0,.11.43.43,0,0,1,0,.11s0,.07,0,.11v.11a.37.37,0,0,1,0,.11H18a9.45,9.45,0,0,1-6.87-2.61,9.46,9.46,0,0,1-2.59-6.86,6.8,6.8,0,0,1,4.3-6.34,7.15,7.15,0,0,1,2.55-.57,6.07,6.07,0,0,1,2.6.44,5.45,5.45,0,0,1,3.4,4.78,3.31,3.31,0,1,1-6.08-1.2Zm20.15,4.47V58a2.63,2.63,0,0,0,2.62,2.62h8.55l.07,0h.06l.06,0h0l.06,0h0l.06,0h0l.06,0h0l.05,0h0l.06,0h0l.06,0h0l.06,0,.06,0h0l.05,0h0l.06,0,.05,0,.06,0,0,0h0l0,0h0l.05,0,0,0h0l.05,0,0,0h0l0,0h0l0,0h0l.05,0h0l0,0h0l0-.05h0l0,0,.05,0h0l0-.05,0,0,0-.05,0,0,0-.06,0,0,0-.06,0,0,0-.06,0,0,0-.06,0-.06,0-.06,0-.06,0-.06,0-.06,0-.06v-.06l0-.07V58.5l0-.07V56.79H35.46Zm-.2-37.65h0c-.46-.15-.79-.21-.85-.14s0,.39.24.83a7.66,7.66,0,0,0,1.79,2.25,7.51,7.51,0,0,0,2.45,1.51c.46.15.78.21.85.14s0-.39-.24-.83a7.37,7.37,0,0,0-1.79-2.25h0l-.05,0h0A7.51,7.51,0,0,0,35.26,19.14Z"/><path class="cls-3" d="M45.1,23.25a1.6,1.6,0,1,1-1.6,1.6A1.6,1.6,0,0,1,45.1,23.25Z"/><path class="cls-3" d="M45.1,32.29a1.6,1.6,0,1,0-1.6-1.6A1.6,1.6,0,0,0,45.1,32.29Z"/><path class="cls-3" d="M45.1,38.07a1.6,1.6,0,1,0-1.6-1.59A1.6,1.6,0,0,0,45.1,38.07Z"/><path class="cls-3" d="M35.05,38H31.16a9.41,9.41,0,0,0-9.38,9.2,8.47,8.47,0,0,0,13.65-6.7A8.6,8.6,0,0,0,35.05,38Z"/><path class="cls-2" d="M56.77,42.34h0l-.39.13h0c-.26.1-.51.21-.76.33h0l-.36.18h0l-.18.1h0l-.35.21h0l-.17.12h0l-.17.11h0l-.33.25h0l-.15.12h0l-.31.27h0l-.15.14h0l-.14.14h0l-.15.15h0l-.14.14h0c0,.06-.09.11-.13.16h0l-.13.15-.13.16h0l-.12.16h0l-.12.17-.12.16h0c0,.06-.07.12-.11.17h0l-.11.18h0l-.1.17a1.62,1.62,0,0,0-.1.18h0a1.62,1.62,0,0,0-.1.18h0l-.09.19h0l-.09.18h0c0,.07,0,.13-.08.19h0c0,.07-.05.13-.08.19h0l-.07.2h0a1.46,1.46,0,0,0-.07.19h0l-.06.2h0a.76.76,0,0,0-.06.2h0l-.06.2h0c0,.07,0,.14-.05.21h0c0,.06,0,.13,0,.2h0a1.55,1.55,0,0,0,0,.21h0a1.55,1.55,0,0,0,0,.21h0l0,.21h0c0,.07,0,.14,0,.21h0a1.64,1.64,0,0,0,0,.22h0a1.48,1.48,0,0,0,0,.21h0a1.7,1.7,0,0,0,0,.22h0v.34h0v.11h0v.12h0v.12h0V51h0v.11h0v.12h0l0,.11h0v.12h0v.11h0l0,.12h0l0,.11h0l0,.11h0L51,52h0l0,.12h0l0,.11h0l0,.11h0l0,.11h0l0,.11h0l0,.11h0l0,.11h0l0,.1,0,.11h0l0,.11h0l0,.1h0l0,.11h0l0,.1h0l0,.11h0l0,.1h0l0,.1,0,.11h0l.05.1h0l0,.1h0l0,.1h0l.05.1h0l0,.09h0l.05.1h0l0,.1h0l.05.1.06.09h0l.06.1h0l0,.09.06.09.06.09.07.09h0l.06.1.06.08h0l.07.09h0l.06.09.07.09.07.08.07.09.07.08h0l.07.09h0l.07.08.08.08h0l.07.08h0l.08.08.08.08h0l.07.07.08.08.08.08.08.07.08.07A7.81,7.81,0,0,0,61,49V42.14H59.29A8.45,8.45,0,0,0,56.77,42.34Z"/><path class="cls-2" d="M35.05,38H31.16a9.41,9.41,0,0,0-9.38,9.2,8.47,8.47,0,0,0,13.65-6.7A8.6,8.6,0,0,0,35.05,38Z"/></g></svg>