<svg xmlns="http://www.w3.org/2000/svg" viewBox="0 0 86.4 86.4"><defs><style>.cls-1{fill:#fff;}.cls-2,.cls-3{fill:#d10c0c;}.cls-2{fill-rule:evenodd;}</style></defs><title>Zeichenfläche 10</title><g id="Ńëîé_1" data-name="Ńëîé 1"><rect class="cls-1" width="86.4" height="86.4"/><path class="cls-2" d="M57.29,38.07a23.26,23.26,0,1,1-28.18,0A15.55,15.55,0,0,1,29,25.49c-1.4-.87-2.2-1.89-2.2-3,0-1.74,2.08-3.3,5.4-4.39V14.44C32.17,4,54.44,4,54.44,14.44v3.69c3.32,1.09,5.4,2.65,5.4,4.39,0,1.13-.86,2.18-2.37,3.07a15.54,15.54,0,0,1-.18,12.48Zm-14,26.41a2.08,2.08,0,1,0,2,2.08,2.07,2.07,0,0,0-2-2.08Zm-.88,1.64a.44.44,0,0,0,0,.88.44.44,0,0,0,0-.88Zm1.75,0a.44.44,0,0,0,0,.88.44.44,0,0,0,0-.88Zm-.87-7.9a2.08,2.08,0,1,0,2,2.08,2.07,2.07,0,0,0-2-2.08Zm-.88,1.64a.44.44,0,0,0,0,.88.44.44,0,0,0,0-.88Zm1.75,0a.44.44,0,0,0,0,.88.44.44,0,0,0,0-.88Zm-1.46-8.72a.2.2,0,0,0-.2.2v3.4a.2.2,0,0,0,.2.2H43.9a.2.2,0,0,0,.2-.2v-3.4a.2.2,0,0,0-.2-.2Zm1.62.23c0,1.3,0,2,0,3.27C45.7,55.75,48.17,57.8,50,57.8A16.5,16.5,0,0,0,50.5,53,16.43,16.43,0,0,0,50,48.21c-1.8,0-4.27,2-5.63,3.16Zm-2.05,0c-1.36-1.11-3.83-3.16-5.62-3.16a21,21,0,0,0,0,9.59c1.79,0,4.26-2,5.62-3.16.05-1.3.05-2,0-3.27ZM56.46,26.12c-3,1.43-7.79,2.34-13.15,2.34S33,27.51,30,26a14.34,14.34,0,0,0,1.08,13.23l-3,2.5a1.44,1.44,0,0,0,1.42,2.45l4.44-1.65A14.36,14.36,0,0,0,56.46,26.12Z"/><path class="cls-2" d="M51.07,35.12a.45.45,0,0,1,.57-.3.46.46,0,0,1,.3.58,10,10,0,0,1-14.25,5.75l1.19-.44a9.06,9.06,0,0,0,12.19-5.59Zm-17.42,2a8.92,8.92,0,0,1-.71-1.68.46.46,0,0,1,.29-.58.47.47,0,0,1,.58.3,8.62,8.62,0,0,0,.56,1.36Z"/><path class="cls-2" d="M43.12,37.92l-14,5.24a.3.3,0,0,1-.3-.52l11.39-9.49a3,3,0,1,1,3,4.77Z"/><path class="cls-2" d="M40.67,30.22a.76.76,0,1,1,0,1.51.76.76,0,0,1,0-1.51Z"/><circle class="cls-3" cx="44.84" cy="31.04" r="0.75" transform="translate(-0.06 0.08) rotate(-0.11)"/></g></svg>