<svg xmlns="http://www.w3.org/2000/svg" viewBox="0 0 86.4 86.4"><defs><style>.cls-1{fill:#fff;}.cls-2{fill:#d10c0c;fill-rule:evenodd;}</style></defs><title>Zeichenfläche 6</title><g id="Ńëîé_1" data-name="Ńëîé 1"><rect class="cls-1" width="86.4" height="86.4"/><path class="cls-2" d="M22.13,28a.77.77,0,1,0-.77-.77A.76.76,0,0,0,22.13,28Z"/><path class="cls-2" d="M40.22,17.38c-5.41-10.49-16.4-6.89-19.09,1.37h-.81A3.12,3.12,0,0,0,19,24.68a13.65,13.65,0,0,0-.55,1.71l-3.91,1.52c1.11.69,2.27,1.39,3.4,2.08-.35,8.9,5,20,9.53,25.23a24.1,24.1,0,0,0,7.81,6,72.8,72.8,0,0,0-9.39.57,9,9,0,0,0-12.32-6,.91.91,0,0,0,.73,1.66,7.31,7.31,0,0,1,3.27-.6,7.16,7.16,0,0,1,3.19.95A7.06,7.06,0,0,1,23,59.85,6.94,6.94,0,0,1,24.05,62a75.73,75.73,0,0,0-11.48,2.68.92.92,0,0,0-.6,1.14.93.93,0,0,0,1.15.6,73,73,0,0,1,17.14-3.28,8.06,8.06,0,0,1-3.69,9.49,7.91,7.91,0,0,1-3.58,1A8,8,0,0,1,19.33,73a.9.9,0,1,0-.74,1.65A9.86,9.86,0,0,0,32.13,63a70,70,0,0,1,11.69.51l.88.12h.13l.33,0,.14,0,.36.06h.07l.38.06h.1l.33.06.14,0,.78.13.19,0,.32.06H48l.4.08.09,0,.29,0,.21,0,.27.06.17,0,.25,0,.23,0H50l.33.07h0l.41.09h.05l.38.08.09,0,.36.09.1,0,.42.1h0l.83.2.09,0,.06,0,.4.1.38.1.08,0h0l.43.11h0l.44.12h0l.45.13h0l.45.13h0l.43.13h0l.42.13h0l.41.12.05,0,.4.12.06,0,.14,0,.31.1.38.12.08,0,.13,0,.31.1h0l.35.12.11,0,.14.05.28.09.13.05.32.1.13,0,.34.12.09,0,.35.12,0,0,.3.11.07,0,.23.09.23.08.09,0,.27.11h.05l.3.12.09,0,.2.08.25.09.08,0,.34.14h0l.4.16,0,0,.36.15.14,0,.27.11.21.09.24.09.18.08.31.13h0l.27.12.07,0,.32.13.11.05.27.12.22.09.07,0,.3.13,0,0,.27.12.15.06.12.06.33.14h0l.4.19h0l.11,0,.16.08.26.12h0l.36.17.08,0,.37.17.07,0,.39.19,0,0,.4.19,0,0,.41.2,0,0,.42.2h0l.43.21h0l.44.22A.91.91,0,0,0,74,71.31l-.38-.19-.08,0-.3-.15-.16-.08,0,0-.38-.19-.05,0-.45-.22-.06,0-.38-.18h0L71.3,70h0l-.35-.16h0l-.31-.14-.07,0-.26-.12-.12-.06-.34-.15,0,0-.42-.19L69,69l-.11-.06-.11,0-.28-.12-.08,0-.18-.08L68,68.51l-.11,0-.35-.16h0l-.38-.16L66.81,68l-.09,0-.14-.06-.25-.1-.21-.09h0l-.36-.15-.06,0-.09,0-.38-.15h0l-.38-.15-.07,0-.31-.12L64.26,67l-.09,0-.28-.11-.09,0-.15,0-.31-.12-.07,0-.39-.14h0l-.37-.13-.09,0-.07,0L62,66.15l-.06,0-.21-.08L61.48,66l-.14,0L61,65.8l0,0-.39-.14h0l-.35-.13-.11,0-.28-.09-.06,0-.22-.08-.28-.09-.09,0-.12,0L58.68,65h0l-.38-.12,0,0-.12,0-.29-.09h-.06l-.26-.08-.08,0-.25-.07,0,0-.29-.08-.1,0-.37-.11h0l-.39-.11h-.06l-.32-.1h0L55.27,64,55,63.94l-.18,0-.25-.07-.15,0-.08,0-.39-.1h0l-.38-.1-.09,0-.3-.08h0l-.28-.07h-.06l-.25-.06,0,0-.34-.08-.08,0h-.06l-.39-.09h0l-.06,0-.4-.09h0l-.37-.08H50.7l-.21,0-.09,0-.1,0,.19-.11a18.85,18.85,0,0,0,7.35-3.63l-1.11-.27h0l-1.55-.41C46.77,56.07,35.83,51.32,33.4,43A12.73,12.73,0,0,1,36.46,30.8c-12.64-7.2-13.36,4.44-17.13,3.78-.61-4-.36-7.78,1.29-10.73h-.3a2,2,0,0,1-2-2h0a2,2,0,0,1,2-2H36.81a2,2,0,0,1,2,2h0a2,2,0,0,1-2,2h0l.17.29a21.1,21.1,0,0,0,3,4.51,8.27,8.27,0,0,1,1.33-.29,15.7,15.7,0,0,1-2.84-3.85,3.22,3.22,0,0,0,1.28-1.58,3.09,3.09,0,0,0,1.73.52,3.17,3.17,0,0,0,0-6.33A3,3,0,0,0,40.22,17.38Z"/><path class="cls-2" d="M86.67,55.44c-16.35-4.9-30.41-27.61-45.14-26-3.5.39-6.07,3.47-7,7C29.81,53.75,64.2,62,80.27,59.29c-5.78-1-10.73-3.1-14.46-6.7C72.58,54.37,81.32,56.07,86.67,55.44Z"/></g></svg>