<svg xmlns="http://www.w3.org/2000/svg" viewBox="0 0 86.4 86.4"><defs><style>.cls-1{fill:#fff;}.cls-2{fill:#fbd9ca;}.cls-3{fill:#d10c0c;fill-rule:evenodd;}</style></defs><title>Zeichenfläche 8</title><g id="Ńëîé_1" data-name="Ńëîé 1"><rect class="cls-1" width="86.4" height="86.4"/><rect class="cls-2" x="34.19" y="68.71" width="18.02" height="6.08"/><path class="cls-3" d="M26.7,37.23H28L40.4,15.52a5.65,5.65,0,1,1,5.6,0L58.38,37.23H59.7a5.25,5.25,0,0,1,2.81,9.68c-.42,22.57-.9,24.46-19.24,34l-.07,0-.07,0c-18.34-9.55-18.82-11.44-19.24-34a5.25,5.25,0,0,1,2.81-9.68ZM58.06,61.75a3.22,3.22,0,0,1-.64.22,4.06,4.06,0,0,1-3.74-1.44c-2.06-2.07-3.89-3.57-7-2.83a4,4,0,0,0-2.5,1.63,1.18,1.18,0,0,1-2,0,4,4,0,0,0-2.5-1.63c-3.08-.74-4.91.76-7,2.83A4.06,4.06,0,0,1,29,62a3.22,3.22,0,0,1-.64-.22c2.15,4,7.42,4,11.89,1.52a5.25,5.25,0,0,0,2-1.73,1.19,1.19,0,0,1,2,0,5.25,5.25,0,0,0,2,1.73c4.47,2.51,9.74,2.44,11.89-1.52ZM31.88,59.69c2.34-2.35,4.53-4,8.08-3.15a5.2,5.2,0,0,1,3.24,2.17,5.2,5.2,0,0,1,3.24-2.17c3.55-.85,5.74.8,8.08,3.15l0,0c2.88-2.22,3.77-4.84,4-12H27.8c.27,7.16,1.16,9.78,4,12l0,0Zm8.35,4.92c.92.52,1.9,1.1,3,1.74h0c1.06-.64,2-1.22,3-1.74l-.58-.31a6.23,6.23,0,0,1-2.39-2.15,6.23,6.23,0,0,1-2.39,2.15l-.58.31ZM26.7,38.42a4.07,4.07,0,0,0-4.07,4.06h0a4.08,4.08,0,0,0,4.07,4.06h33a4.08,4.08,0,0,0,4.07-4.06h0a4.07,4.07,0,0,0-4.07-4.06ZM43.2,6.15a4.47,4.47,0,1,0,4.46,4.46A4.47,4.47,0,0,0,43.2,6.15Z"/><path class="cls-3" d="M40.43,49.63a1,1,0,1,1-1,1A1,1,0,0,1,40.43,49.63Z"/><path class="cls-3" d="M46,49.72a1,1,0,1,1-1,1A1,1,0,0,1,46,49.72Z"/><path class="cls-3" d="M45.45,45.56h0a1.09,1.09,0,0,0,.06,1.53l3.84,3.56a1.07,1.07,0,0,0,1.52-.06h0a1.07,1.07,0,0,0,0-1.52L47,45.5A1.09,1.09,0,0,0,45.45,45.56Z"/><path class="cls-3" d="M41,45.56h0a1.09,1.09,0,0,1-.06,1.53l-3.84,3.56a1.07,1.07,0,0,1-1.52-.06h0a1.07,1.07,0,0,1,0-1.52l3.84-3.57A1.09,1.09,0,0,1,41,45.56Z"/><path class="cls-3" d="M43.2,53.21c3.16,0,5.72,1.28,5.72,2.86s-2.56,2.85-5.72,2.85-5.72-1.28-5.72-2.85S40,53.21,43.2,53.21Z"/></g></svg>