<svg xmlns="http://www.w3.org/2000/svg" viewBox="0 0 86.4 86.4"><defs><style>.cls-1{fill:#d10c0c;}.cls-2{fill:#fefefe;fill-rule:evenodd;}</style></defs><title>Zeichenfläche 7</title><g id="Ńëîé_1" data-name="Ńëîé 1"><rect class="cls-1" width="86.4" height="86.4"/><path class="cls-2" d="M43,63.45a8.37,8.37,0,0,0,8.37-8.37,8.23,8.23,0,0,0-.91-3.8.38.38,0,0,0-.44-.21.4.4,0,0,0-.32.37c-.07,1.48-.29,3-1.69,3.77-1.58.87-2.79-.27-3-1.85-.26-2.16.73-4.11.66-6.21a5.77,5.77,0,0,0-1.26-3.4,6.34,6.34,0,0,0-4.29-2.63.41.41,0,0,0-.39.27.39.39,0,0,0,.15.46,6.37,6.37,0,0,1,2.31,4.9A5.32,5.32,0,0,1,41.45,50c-.65.94-1.66,2.25-2.53,2-1.24-.29-.92-1.87-.25-3.15a.41.41,0,0,0-.1-.49.39.39,0,0,0-.5,0,8.37,8.37,0,0,0,5,15.11Z"/><path class="cls-2" d="M16.92,28.41V33.2H24.1V28.41h1.42V33.2H61.35V28.41h1.42V33.2h6.71V28.41h.88a1.15,1.15,0,0,0,1.14-1.14V26.4a1.15,1.15,0,0,0-1.14-1.14H72.3a1.14,1.14,0,0,0,1.14-1.14v-.87a1.14,1.14,0,0,0-1.14-1.14H14.1A1.14,1.14,0,0,0,13,23.25v.87a1.14,1.14,0,0,0,1.14,1.14H16A1.15,1.15,0,0,0,14.9,26.4v.87A1.15,1.15,0,0,0,16,28.41Zm0,6.21V61.08a3.21,3.21,0,0,0,3.21,3.21h4V34.62Zm8.6,29.67h3a3.22,3.22,0,0,0,3.22-3.21V41A3.22,3.22,0,0,1,35,37.8H51.42A3.22,3.22,0,0,1,54.64,41V61.08a3.21,3.21,0,0,0,3.21,3.21h3.5V34.62H25.52V64.29Zm37.25,0h3.5a3.21,3.21,0,0,0,3.21-3.21V34.62H62.77Z"/></g></svg>