<svg xmlns="http://www.w3.org/2000/svg" viewBox="0 0 86.4 86.4"><defs><style>.cls-1{fill:#fff;}.cls-2{fill:#d10c0c;fill-rule:evenodd;}</style></defs><title>Zeichenfläche 12</title><g id="Ńëîé_1" data-name="Ńëîé 1"><rect class="cls-1" width="86.4" height="86.4"/><path class="cls-2" d="M44.17,25.12,55,39.05a1.14,1.14,0,0,1,.11,1.24A1.21,1.21,0,0,1,54,41h-.63a1.2,1.2,0,0,0-1.11.68,1.15,1.15,0,0,0,.17,1.26l11.18,13a1.15,1.15,0,0,1,.17,1.26,1.2,1.2,0,0,1-1.11.68H60.32a1.2,1.2,0,0,0-1.09.66,1.09,1.09,0,0,0,.11,1.23L69.72,73.25a1.14,1.14,0,0,1,.11,1.24,1.2,1.2,0,0,1-1.09.65H17.66a1.2,1.2,0,0,1-1.09-.65,1.14,1.14,0,0,1,.11-1.24L27.06,59.7a1.11,1.11,0,0,0,.11-1.23,1.2,1.2,0,0,0-1.09-.66H23.71a1.2,1.2,0,0,1-1.11-.68,1.15,1.15,0,0,1,.17-1.26L34,42.89a1.15,1.15,0,0,0,.17-1.26A1.2,1.2,0,0,0,33,41h-.63a1.2,1.2,0,0,1-1.09-.66,1.14,1.14,0,0,1,.11-1.24L42.22,25.12a1.2,1.2,0,0,1,1-.48,1.17,1.17,0,0,1,1,.48Zm6.39,26.39A4.33,4.33,0,1,0,55,55.84a4.4,4.4,0,0,0-4.46-4.33Zm5.36,12.54a4.33,4.33,0,1,0,4.46,4.33,4.39,4.39,0,0,0-4.46-4.33ZM33.73,48.81a4.33,4.33,0,1,0,4.46,4.33,4.4,4.4,0,0,0-4.46-4.33Zm9.48-13.62a5.41,5.41,0,1,0,5.57,5.41,5.5,5.5,0,0,0-5.57-5.41ZM34.84,62.86a4.33,4.33,0,1,0,4.46,4.33A4.39,4.39,0,0,0,34.84,62.86Z"/><path class="cls-2" d="M44.13,11.85l1.31,2.94a1,1,0,0,0,.84.59l3.29.3a1,1,0,0,1,.86.67.94.94,0,0,1-.29,1l-2.48,2.12a1,1,0,0,0-.32.95l.72,3.13a1,1,0,0,1-.39,1,1,1,0,0,1-1.11,0L43.71,23a1,1,0,0,0-1,0l-2.84,1.63a1,1,0,0,1-1.11,0,1,1,0,0,1-.4-1l.73-3.13a1,1,0,0,0-.32-.95l-2.48-2.12a1,1,0,0,1-.3-1,1,1,0,0,1,.87-.67l3.29-.3a1,1,0,0,0,.84-.59l1.31-2.94a1,1,0,0,1,1.86,0Z"/></g></svg>