<svg xmlns="http://www.w3.org/2000/svg" viewBox="0 0 86.4 86.4"><defs><style>.cls-1{fill:#d10c0c;}.cls-2{fill:#fefefe;fill-rule:evenodd;}</style></defs><title>Zeichenfläche 5</title><g id="Ńëîé_1" data-name="Ńëîé 1"><rect class="cls-1" width="86.4" height="86.4"/><path class="cls-2" d="M28.42,35.36H58.94l.33,0L43.69,22.23,28.11,35.38l.31,0Zm33.07,1.89a2.81,2.81,0,0,1,.11.77v27.5a2.66,2.66,0,0,1-2.66,2.66H57.18a4.52,4.52,0,0,1-4.4,5.59H19.71A4.51,4.51,0,0,1,15.5,67.6a16.44,16.44,0,0,1,10.27-9.48V38a2.41,2.41,0,0,1,.11-.76l-2.12,1.79a4.16,4.16,0,1,1-5.37-6.36L41,13.62h0a4.19,4.19,0,0,1,5.38,0L69,32.67A4.16,4.16,0,0,1,63.6,39l-2.11-1.78Zm2.64-16.67a2.17,2.17,0,1,0,2.17,2.17,2.18,2.18,0,0,0-2.17-2.17ZM30.65,14.06a2.18,2.18,0,1,0,2.17,2.17,2.17,2.17,0,0,0-2.17-2.17ZM21.09,42.51a2.17,2.17,0,1,0,2.17,2.17,2.17,2.17,0,0,0-2.17-2.17ZM13.63,29.92a2.17,2.17,0,1,0,2.17,2.17,2.17,2.17,0,0,0-2.17-2.17ZM73.91,40.53a2.17,2.17,0,1,1-2.18,2.17,2.17,2.17,0,0,1,2.18-2.17Zm-8,15.27A2.17,2.17,0,1,0,68,58a2.17,2.17,0,0,0-2.17-2.17ZM19.33,37.34Zm.71.57a2.39,2.39,0,0,0,1.17.24A2.72,2.72,0,0,1,20,37.91ZM65.4,38a2.27,2.27,0,0,0,1.66,0,2.38,2.38,0,0,1-1.66,0ZM68,37.32h0Zm-33.66,6.5v4.74h8.57V42.29h-7a1.54,1.54,0,0,0-1.53,1.53Zm0,6.24v4.75a1.54,1.54,0,0,0,1.53,1.53h7V50.06Zm10.07-1.5H53V43.82a1.54,1.54,0,0,0-1.53-1.53h-7v6.27Zm0,7.78h7A1.54,1.54,0,0,0,53,54.81V50.06H44.43v6.28ZM45.82,63a11.49,11.49,0,0,0-3.13.43,15.88,15.88,0,0,0-11.08-4.36c-6.62,0-12.26,3.85-14.36,9.23a2.64,2.64,0,0,0,2.46,3.61H52.78a2.65,2.65,0,0,0,2.24-4A10.8,10.8,0,0,0,45.82,63Z"/></g></svg>