<svg xmlns="http://www.w3.org/2000/svg" viewBox="0 0 86.4 86.4"><defs><style>.cls-1{fill:#d10c0c;}.cls-2{fill:#fefefe;fill-rule:evenodd;}</style></defs><title>Zeichenfläche 11</title><g id="Ńëîé_1" data-name="Ńëîé 1"><rect class="cls-1" width="86.4" height="86.4"/><path class="cls-2" d="M43.2,9a12.3,12.3,0,0,1,8.09,21.56l.15.09L61.5,34.46a.84.84,0,0,0,.06.38l1.09,2.4-2.41,1.09h0a.72.72,0,0,0-.36,1L61,41.69l-2.4,1.09h0a.72.72,0,0,0-.36,1l1.07,2.38,1.65.62a.72.72,0,0,0,0-.54l0-.05L59.82,43.8l2.41-1.09a.73.73,0,0,0,.36-1l0,0L61.5,39.35l2.4-1.09a.71.71,0,0,0,.36-.95.14.14,0,0,0,0-.06l-1-2.11,2.17.83a.75.75,0,0,0,.07.38l1.08,2.4-2.4,1.09h0a.72.72,0,0,0-.36,1l1.08,2.4-2.4,1.09h0a.73.73,0,0,0-.36,1l1.08,2.38,1.64.63a.72.72,0,0,0,0-.54l0-.05-1.06-2.35,2.41-1.09a.73.73,0,0,0,.36-1l0,0-1.06-2.35,2.41-1.09a.72.72,0,0,0,.35-1,.17.17,0,0,0,0-.05l-1-2.11,1.72.66a5.24,5.24,0,0,1,3,6.74l-.44,1.15a5.25,5.25,0,0,1-6.75,3l-11.9-4.55v5.61l4,12.58a.72.72,0,0,0-.41.36.08.08,0,0,0,0,.05l-1.18,2.3-2.35-1.2a.72.72,0,0,0-1,.31.14.14,0,0,0,0,.06L50.77,66l-2.35-1.2a.72.72,0,0,0-1,.32l0,0-1.06,2.07L43.2,57.38,40,67.27,39,65.2l0,0a.72.72,0,0,0-1-.32L35.63,66l-1.18-2.29a.14.14,0,0,0,0-.06.72.72,0,0,0-1-.31l-2.35,1.2-1.18-2.3s0,0,0-.05a.72.72,0,0,0-.41-.36L29,63.54l1.19,2.33a.73.73,0,0,0,1,.31h0L33.47,65l1.2,2.35a.72.72,0,0,0,1,.32h0L38,66.45l1.2,2.35a.64.64,0,0,0,.26.28l-.71,2.22-1.06-2.07,0,0a.72.72,0,0,0-1-.32l-2.35,1.2-1.17-2.3,0-.05a.73.73,0,0,0-1-.32L29.82,68.6l-1.18-2.3a.08.08,0,0,0,0,0,.72.72,0,0,0-.41-.36l5.31-16.61V43.67l-6.4,2.45,1.07-2.37a.72.72,0,0,0-.36-1h0l-2.4-1.09,1.08-2.4a.72.72,0,0,0-.35-1h0l-2.41-1.09,1.09-2.4a.86.86,0,0,0,.06-.38l-1.78.67-1,2.12a.14.14,0,0,0,0,.06.71.71,0,0,0,.36,1l2.4,1.09-1.06,2.35,0,0a.73.73,0,0,0,.36,1l2.41,1.09-1.06,2.35,0,.05a.72.72,0,0,0,0,.54l-2.3.88,1.07-2.38a.72.72,0,0,0-.36-1h0l-2.41-1.09,1.09-2.41a.71.71,0,0,0-.36-.95h0l-2.4-1.09,1.08-2.4a.65.65,0,0,0,.06-.38l-1.77.67-1,2.12,0,0a.73.73,0,0,0,.36,1L21,40.87l-1.06,2.35,0,.05a.73.73,0,0,0,.36,1l2.41,1.09-1.06,2.35,0,0a.78.78,0,0,0,0,.54,5.25,5.25,0,0,1-6.64-3.06l-.44-1.15a5.24,5.24,0,0,1,3-6.74L35,30.61l.15-.09A12.3,12.3,0,0,1,43.2,9Zm-1.7,9.35a1,1,0,1,0,1,1,1,1,0,0,0-1-1Zm3.76,0a1,1,0,1,0,1,1,1,1,0,0,0-1-1Zm5.9,4.49a8.35,8.35,0,0,1-15.92,0,.43.43,0,0,0-.53-.28.44.44,0,0,0-.28.54,9.21,9.21,0,0,0,17.54,0,.43.43,0,0,0-.28-.54.43.43,0,0,0-.53.28Zm-13,50.31a.7.7,0,0,1-.26-.28l-1.2-2.35-2.36,1.2h0a.73.73,0,0,1-1-.32L32.18,69l-2.35,1.2h0a.72.72,0,0,1-1-.32l-1.19-2.32-.85,2.68a5.25,5.25,0,0,0,3.38,6.57l1.18.37A5.24,5.24,0,0,0,38,73.8l.22-.69Zm19.27-9.57-1.19,2.33a.73.73,0,0,1-1,.31h0L52.93,65l-1.2,2.35a.72.72,0,0,1-1,.32h0l-2.36-1.2L47.2,68.8a.64.64,0,0,1-.26.28l.71,2.22,1.06-2.07,0,0a.73.73,0,0,1,1-.32l2.35,1.2,1.17-2.3,0-.05a.73.73,0,0,1,1-.32l2.35,1.21,1.18-2.3a.08.08,0,0,1,0,0,.72.72,0,0,1,.41-.36l-.75-2.35Zm1.28,4-1.18,2.32a.72.72,0,0,1-1,.32h0L54.22,69,53,71.36a.73.73,0,0,1-1,.32h0l-2.36-1.2-1.2,2.35a.7.7,0,0,1-.26.28l.22.69A5.24,5.24,0,0,0,55,77.19l1.17-.37a5.24,5.24,0,0,0,3.39-6.57l-.86-2.68ZM43.2,32.81a2.27,2.27,0,1,0,2.27,2.27,2.26,2.26,0,0,0-2.27-2.27Zm0,6.48a2.28,2.28,0,1,0,2.27,2.27,2.27,2.27,0,0,0-2.27-2.27Zm0,6.55a2.28,2.28,0,1,0,2.27,2.28A2.27,2.27,0,0,0,43.2,45.84Z"/></g></svg>