<svg xmlns="http://www.w3.org/2000/svg" viewBox="0 0 86.4 86.4"><defs><style>.cls-1{fill:#d10c0c;}.cls-2{fill:#fefefe;fill-rule:evenodd;}</style></defs><title>Zeichenfläche 9</title><g id="Ńëîé_1" data-name="Ńëîé 1"><rect class="cls-1" width="86.4" height="86.4"/><path class="cls-2" d="M39.93,34.2h6.54A7.56,7.56,0,0,1,54,41.74v7.74c0,3.08,1.83,4.49,4.18,5a3.07,3.07,0,0,1,2.45,3v2.73a3.11,3.11,0,0,1-3.11,3.1H28.87a3.11,3.11,0,0,1-3.11-3.1V57.52a3.07,3.07,0,0,1,2.45-3c2.35-.52,4.18-1.93,4.18-5V41.74A7.56,7.56,0,0,1,39.93,34.2Z"/><path class="cls-2" d="M38.84,64.71h8.72v.19a4.36,4.36,0,1,1-8.72,0Z"/><path class="cls-2" d="M56.62,18.48c-5.46-5-13,4.25-13.42,10.11-.45-5.86-8-15.11-13.42-10.11-5.1,4.67,1.57,11.86,7.21,13.83a23,23,0,0,1-2.21-.83c-3.8-1.6-6.72-3.84-10.19-5.09-5.81-2.08-9.59-1.67-15.14.9l3.26,6.82c7.61-4.76,19.2-.79,27.6,0,1.16.1,2.32.14,2.89.14s1.73,0,2.89-.14c8.41-.74,20-4.71,27.6,0L77,27.29c-5.55-2.57-9.33-3-15.14-.9-3.47,1.25-6.39,3.49-10.19,5.09a23,23,0,0,1-2.21.83c5.64-2,12.31-9.16,7.21-13.83ZM43.2,29.66v0h0ZM41,30.74c-2.43,2.23-10.84-4-6.93-7.56s9.35,5.34,6.93,7.56Zm4.42,0c-2.42-2.22,3.14-11,6.93-7.56S47.84,33,45.41,30.74Z"/></g></svg>