<svg xmlns="http://www.w3.org/2000/svg" viewBox="0 0 86.4 86.4"><defs><style>.cls-1{fill:#fff;}.cls-2{fill:#d10c0c;fill-rule:evenodd;}</style></defs><title>Zeichenfläche 16</title><g id="Ńëîé_1" data-name="Ńëîé 1"><rect class="cls-1" width="86.4" height="86.4"/><path class="cls-2" d="M25.75,34.44c.19,5.56.58,8.59,2.07,10.89l-.09.24a6.72,6.72,0,0,0-.27,3.27,11.37,11.37,0,0,0,.34,1.72A7.5,7.5,0,0,0,28.36,52a7.65,7.65,0,0,0,3.09,3.28c2.28,1.33,6.12,1.84,8.49.53a6.69,6.69,0,0,0,.73-.44,6.69,6.69,0,0,0,.73.44c2.37,1.31,6.22.8,8.49-.53A7.67,7.67,0,0,0,53,52a9.06,9.06,0,0,0,.56-1.45,11.34,11.34,0,0,0,.33-1.72,7.06,7.06,0,0,0-.15-2.93c2-2.3,2.82-5.43,3.06-11.47ZM67.33,3.34a4.57,4.57,0,1,1-4.57,4.57,4.58,4.58,0,0,1,4.57-4.57ZM23.79,25.16H57.56a4.17,4.17,0,0,1,4.15,4.15h0a4.17,4.17,0,0,1-4.15,4.16H23.79a4.17,4.17,0,0,1-4.16-4.16h0a4.17,4.17,0,0,1,4.16-4.15Zm32.4-1h1.37a5.13,5.13,0,0,1,2.9,9.36c.06,11,5,27.26-3.52,38C52.7,76.91,42.89,83,35.83,79c-5.67-3.19-6.4-11.2-.22-11.47-1.77,3.86,2.25,4.73,3.62,3.44a2.89,2.89,0,0,0,.82-2.81C39.69,67,38.3,65.83,35,65.58c-5-.39-12.55-2.17-14.51-7.34-3-7.93,1.19-15.86,1.51-24.13a5.13,5.13,0,0,1,1.81-9.93h1.35C26,15.29,34.3,7.59,40.67,6.52c10,.17,13.58,7.23,19.49,8.33,3.42.64,4.92,0,5.75-1.58a5.54,5.54,0,1,1,1.73.18C66.8,23.62,57,22.2,54.22,17.63a24.13,24.13,0,0,1,2,6.55Zm-11,20.57a3.87,3.87,0,0,1,.47.28c.91.62,1.32,1.12,2,1.6a3,3,0,0,0,1.74.74,1.2,1.2,0,0,0,1.13-.57,1.35,1.35,0,0,0,.17-1,.78.78,0,0,0-1.23-.38,5.14,5.14,0,0,0-.47.44.79.79,0,0,1-.25-.64,1.82,1.82,0,0,1,.1-.49,1.44,1.44,0,0,1,.2-.36,1.21,1.21,0,0,1,.45-.33,1.3,1.3,0,0,1,.53-.14,1.93,1.93,0,0,1,.74.1,2.38,2.38,0,0,1,.52.22,3.31,3.31,0,0,1,.71.56,2.61,2.61,0,0,1,.51.61,5.38,5.38,0,0,1,.24.55,5.78,5.78,0,0,1,.21,2.8,10.62,10.62,0,0,1-.3,1.58,6.84,6.84,0,0,1-.5,1.28,6.65,6.65,0,0,1-2.71,2.88c-2,1.15-5.47,1.65-7.53.52-.62-.34-.93-.51-1.2-1.12-.27.61-.58.78-1.2,1.12-2.06,1.13-5.56.63-7.52-.52a6.62,6.62,0,0,1-2.72-2.88,6.23,6.23,0,0,1-.49-1.28,9.4,9.4,0,0,1-.31-1.58,5.9,5.9,0,0,1,.21-2.8,3.87,3.87,0,0,1,.25-.55,2.3,2.3,0,0,1,.5-.61,3.31,3.31,0,0,1,.71-.56,2.38,2.38,0,0,1,.52-.22,2,2,0,0,1,.74-.1,1.3,1.3,0,0,1,.53.14,1.21,1.21,0,0,1,.45.33,1.44,1.44,0,0,1,.2.36,1.28,1.28,0,0,1,.1.49.79.79,0,0,1-.25.64,5.14,5.14,0,0,0-.47-.44.78.78,0,0,0-1.23.38,1.35,1.35,0,0,0,.18,1,1.17,1.17,0,0,0,1.12.57,3,3,0,0,0,1.74-.74c.66-.48,1.07-1,2-1.6a3.87,3.87,0,0,1,.47-.28,4.65,4.65,0,0,0,9,0Z"/><path class="cls-2" d="M37.83,38.68a1,1,0,1,0-1-1A1,1,0,0,0,37.83,38.68Z"/><path class="cls-2" d="M43.51,38.77a1,1,0,1,0-1-1A1,1,0,0,0,43.51,38.77Z"/><path class="cls-2" d="M38.37,32h0a1.11,1.11,0,0,1-.06,1.56l-3.93,3.65a1.11,1.11,0,0,1-1.56-.06h0a1.11,1.11,0,0,1,.06-1.56l3.93-3.65A1.11,1.11,0,0,1,38.37,32Z"/><path class="cls-2" d="M43,32h0A1.11,1.11,0,0,0,43,33.52L47,37.17a1.11,1.11,0,0,0,1.56-.06h0a1.1,1.1,0,0,0-.06-1.56L44.54,31.9A1.13,1.13,0,0,0,43,32Z"/><path class="cls-2" d="M39.29,41a1.13,1.13,0,1,1-1.14,1.13A1.14,1.14,0,0,1,39.29,41Zm1.38-1a3.63,3.63,0,1,0,3.66,3.62A3.65,3.65,0,0,0,40.67,40Z"/></g></svg>