<svg xmlns="http://www.w3.org/2000/svg" viewBox="0 0 86.4 86.4"><defs><style>.cls-1{fill:#d10c0c;}.cls-2{fill:#fefefe;fill-rule:evenodd;}</style></defs><title>Zeichenfläche 21</title><g id="Ńëîé_1" data-name="Ńëîé 1"><rect class="cls-1" width="86.4" height="86.4"/><path class="cls-2" d="M61,56.56H25.36a7,7,0,0,0-7,7v.72a7,7,0,0,0,7,7H61a6.93,6.93,0,0,0,4.93-2h0a6.93,6.93,0,0,0,2-4.93v-.72a6.93,6.93,0,0,0-2-4.93h0a6.93,6.93,0,0,0-4.93-2ZM25.36,55.22H61a8.29,8.29,0,0,1,5.87,2.44h0a8.33,8.33,0,0,1,2.44,5.88v.72a8.26,8.26,0,0,1-2.45,5.87h0A8.25,8.25,0,0,1,61,72.57H25.36A8.35,8.35,0,0,1,17,64.26v-.72a8.35,8.35,0,0,1,8.32-8.32Z"/><path class="cls-2" d="M35.6,28.2a28.19,28.19,0,0,0-4.7,5.7,39.09,39.09,0,0,0-6,19.85H61.46a39.94,39.94,0,0,0-5.9-19.66,29.47,29.47,0,0,0-4.72-6l0,0a1.71,1.71,0,0,1-.33.17,2.76,2.76,0,0,1-.08.27.3.3,0,0,1,0,.1,2.55,2.55,0,0,1-.77,1.06,2.75,2.75,0,0,1-1.26.61,2.58,2.58,0,0,1-.39,0l-.2.27a2.82,2.82,0,0,1-1.15.8,2.7,2.7,0,0,1-1.38.13,2.74,2.74,0,0,1-.39-.09l-.3.2a2.81,2.81,0,0,1-1.35.36,2.68,2.68,0,0,1-1.35-.36,3.28,3.28,0,0,1-.31-.2,2.34,2.34,0,0,1-.38.09,2.69,2.69,0,0,1-1.38-.13,2.78,2.78,0,0,1-1.16-.81,2.48,2.48,0,0,1-.19-.26,2.58,2.58,0,0,1-.39,0,2.78,2.78,0,0,1-1.27-.61,2.73,2.73,0,0,1-.8-1.15l-.09-.29Z"/><path class="cls-2" d="M44.36,14.51l.12.2v0h.06l0,0,.19-.15a1.38,1.38,0,0,1,.65-.3h0a1.33,1.33,0,0,1,.71.07h0a1.4,1.4,0,0,1,.59.41h0a1.35,1.35,0,0,1,.3.65l0,.2h0a0,0,0,0,0,0,0h.07l.23-.08a1.44,1.44,0,0,1,.71-.06h0a1.4,1.4,0,0,1,1.06.9h0a1.35,1.35,0,0,1,.06.72h0l0,.16v0h0s0,0,0,0h0s0,0,0,0h.21a1.41,1.41,0,0,1,1.21.7h0a1.46,1.46,0,0,1,.18.7h0a1.47,1.47,0,0,1-.19.7l-.08.13h0v0a176607545783,176607545783,0,0,0,0,.06h0l.17,0a1.46,1.46,0,0,1,.59.42h0a1.31,1.31,0,0,1,.31.66h0a1.46,1.46,0,0,1-.06.72h0a1.39,1.39,0,0,1-.43.59l-.11.1h0s0,0,0,0h0v.06l0,0h0l.11.09a1.45,1.45,0,0,1,.43.59,1.39,1.39,0,0,1,.06.73h0a1.39,1.39,0,0,1-.3.65h0a1.5,1.5,0,0,1-.6.41h0l-.17.06h0a0,0,0,0,0,0,0h0v0h0s0,0,0,0l.08.13a1.4,1.4,0,0,1,.19.69h0a1.42,1.42,0,0,1-.18.69,1.34,1.34,0,0,1-.51.52,1.38,1.38,0,0,1-.7.19H49.2l0,0h0v0h0v0l0,.17a1.31,1.31,0,0,1-.06.71h0a1.47,1.47,0,0,1-.41.59,1.45,1.45,0,0,1-.65.31h0a1.44,1.44,0,0,1-.71-.06l-.23-.08h-.05l0,0h0s0,0,0,0h0l0,.2a1.35,1.35,0,0,1-.3.65,1.4,1.4,0,0,1-.59.41,1.43,1.43,0,0,1-.71.06,1.31,1.31,0,0,1-.65-.29l-.19-.16h-.08a0,0,0,0,0,0,0l-.12.2a1.52,1.52,0,0,1-.51.5,1.41,1.41,0,0,1-1.38,0,1.44,1.44,0,0,1-.51-.5l-.12-.2,0,0h-.07l-.2.16a1.24,1.24,0,0,1-.65.29,1.3,1.3,0,0,1-.7-.07h0a1.4,1.4,0,0,1-.59-.41h0a1.45,1.45,0,0,1-.31-.65h0l0-.2h0a.08.08,0,0,1,0,0h0l0,0h0L39,29h0a1.45,1.45,0,0,1-.71.06h0a1.47,1.47,0,0,1-.64-.31,1.56,1.56,0,0,1-.42-.6h0a1.41,1.41,0,0,1-.06-.71l0-.17h0v0h0l0,0h0l0,0h-.23a1.38,1.38,0,0,1-.7-.19h0a1.34,1.34,0,0,1-.51-.52h0a1.3,1.3,0,0,1-.18-.69h0a1.31,1.31,0,0,1,.19-.69h0l.07-.13h0l0,0h0a0,0,0,0,1,0,0h0s0,0,0,0h0l-.16-.06h0a1.43,1.43,0,0,1-.6-.41h0a1.48,1.48,0,0,1-.31-.67,1.36,1.36,0,0,1,.07-.72,1.43,1.43,0,0,1,.42-.59h0l.12-.09s0,0,0,0h0v-.06h0l0,0h0l-.12-.09h0a1.37,1.37,0,0,1-.42-.59,1.34,1.34,0,0,1-.07-.72,1.44,1.44,0,0,1,.31-.66h0a1.42,1.42,0,0,1,.6-.42l.16,0h0l0,0v0l0,0h0l-.07-.13a1.37,1.37,0,0,1-.19-.7h0a1.35,1.35,0,0,1,.18-.7,1.39,1.39,0,0,1,.51-.51h0a1.36,1.36,0,0,1,.7-.19h.25l0,0h0v0h0l0-.16a1.46,1.46,0,0,1,.06-.72h0a1.47,1.47,0,0,1,.41-.59h0a1.37,1.37,0,0,1,.64-.31h0a1.48,1.48,0,0,1,.72.06h0l.22.08h.06l0,0h0v0h0l0-.2a1.36,1.36,0,0,1,.31-.65h0a1.43,1.43,0,0,1,.58-.41h0a1.4,1.4,0,0,1,.7-.07,1.34,1.34,0,0,1,.65.3h0l.2.16h.08v0l.12-.2a1.29,1.29,0,0,1,.51-.5,1.35,1.35,0,0,1,1.38,0,1.36,1.36,0,0,1,.51.5Zm-1,.88-.12-.2,0,0h-.06l0,0-.12.2a1.27,1.27,0,0,1-.4.43h0a1.55,1.55,0,0,1-.55.22,1.46,1.46,0,0,1-.59,0,1.4,1.4,0,0,1-.53-.27l-.19-.16h-.07l0,0h0v0l0,.2h0a1.36,1.36,0,0,1-.24.55h0a1.44,1.44,0,0,1-.45.4,1.29,1.29,0,0,1-.56.19,1.39,1.39,0,0,1-.6-.08h0l-.22-.08h0l0,0,0,0h0s0,0,0,0l0,.16h0a1.39,1.39,0,0,1,0,.61h0a1.3,1.3,0,0,1-.28.53,1.4,1.4,0,0,1-.47.37h0a1.37,1.37,0,0,1-.59.13h-.24a0,0,0,0,0,0,0l0,0h0l0,0,.07.12h0a1.37,1.37,0,0,1,.19.58h0a1.35,1.35,0,0,1-.08.6,1.38,1.38,0,0,1-.32.52h0a1.34,1.34,0,0,1-.51.32h0L36,21l0,0h0a0,0,0,0,0,0,0v0s0,0,0,0h0l.11.1h0a1.41,1.41,0,0,1,.37.48h0a1.38,1.38,0,0,1,.13.6,1.31,1.31,0,0,1-.13.59h0a1.18,1.18,0,0,1-.38.48l-.11.1h0l0,0v.07h0l0,0h0l.16.05h0a1.46,1.46,0,0,1,.52.32,1.34,1.34,0,0,1,.32.51h0a1.39,1.39,0,0,1,.08.6h0a1.37,1.37,0,0,1-.19.59h0l-.07.13h0v0h0a0,0,0,0,0,0,0h0s0,0,0,0h.24a1.31,1.31,0,0,1,.59.13,1.19,1.19,0,0,1,.47.37h0a1.3,1.3,0,0,1,.28.53h0a1.34,1.34,0,0,1,0,.6h0l0,.17v0h0l0,0,0,0h0l.22-.07h0a1.55,1.55,0,0,1,.6-.07h0a1.37,1.37,0,0,1,.56.18,1.47,1.47,0,0,1,.45.41h0a1.5,1.5,0,0,1,.23.55h0l0,.2h0a0,0,0,0,1,0,0h.09l.2-.16a1.34,1.34,0,0,1,.53-.27h0a1.3,1.3,0,0,1,.59,0,1.39,1.39,0,0,1,.55.22,1.31,1.31,0,0,1,.4.44l.12.2,0,0h.06a0,0,0,0,0,0,0l.12-.2a1.45,1.45,0,0,1,.41-.44,1.33,1.33,0,0,1,.55-.22,1.31,1.31,0,0,1,.59,0,1.4,1.4,0,0,1,.53.27l.19.16h.09a0,0,0,0,0,0,0l0-.2h0a1.43,1.43,0,0,1,.23-.55h0a1.42,1.42,0,0,1,.44-.4,1.46,1.46,0,0,1,.57-.18h0a1.47,1.47,0,0,1,.59.07l.23.08h0l0,0h0l0,0h0v0l0-.17a1.35,1.35,0,0,1,0-.6h0a1.43,1.43,0,0,1,.28-.53h0a1.29,1.29,0,0,1,.47-.37,1.31,1.31,0,0,1,.59-.13h.24l0,0a.08.08,0,0,0,0,0h0a0,0,0,0,0,0,0l-.07-.13a1.33,1.33,0,0,1-.19-.57h0a1.29,1.29,0,0,1,.08-.61h0a1.34,1.34,0,0,1,.32-.51,1.36,1.36,0,0,1,.52-.33l.16-.05h0l0,0h0v0h0v0s0,0,0,0l-.12-.1h0a1.37,1.37,0,0,1-.38-.48,1.45,1.45,0,0,1-.13-.59,1.54,1.54,0,0,1,.13-.6h0a1.43,1.43,0,0,1,.38-.47h0l.12-.09,0,0h0v0h0a.08.08,0,0,1,0,0h0l0,0-.16-.06h0a1.31,1.31,0,0,1-.52-.32h0a1.38,1.38,0,0,1-.32-.52,1.25,1.25,0,0,1-.08-.6,1.37,1.37,0,0,1,.19-.58h0l.07-.12a.08.08,0,0,0,0,0h0a.08.08,0,0,0,0,0h0l0,0h-.24a1.45,1.45,0,0,1-.59-.13,1.55,1.55,0,0,1-.48-.37,1.43,1.43,0,0,1-.28-.53h0a1.34,1.34,0,0,1,0-.6l0-.16h0v0h0l0,0,0,0h0l-.23.08h0A1.39,1.39,0,0,1,47,17a1.33,1.33,0,0,1-.57-.19h0a1.31,1.31,0,0,1-.44-.4h0a1.5,1.5,0,0,1-.23-.55h0l0-.2s0,0,0,0h0l0,0H45.6l-.19.16a1.4,1.4,0,0,1-.53.27,1.67,1.67,0,0,1-.59,0h0a1.48,1.48,0,0,1-.55-.22h0a1.41,1.41,0,0,1-.41-.43Zm-4.87,1.45Z"/><path class="cls-2" d="M61.64,63.31l1.94-1.94a.29.29,0,0,0-.21-.5H60.82a.29.29,0,0,1-.29-.29V58a.29.29,0,0,0-.5-.21l-1.94,1.94A.28.28,0,0,0,58,60V63.1a.29.29,0,0,0,.29.29h3.14A.28.28,0,0,0,61.64,63.31Z"/><path class="cls-2" d="M53.79,64l-1.93,1.93a.3.3,0,0,0-.07.32.28.28,0,0,0,.27.18h2.56a.3.3,0,0,1,.29.3v2.55a.29.29,0,0,0,.5.21l1.93-1.94a.25.25,0,0,0,.09-.2V64.21a.29.29,0,0,0-.29-.29H54A.28.28,0,0,0,53.79,64Z"/><path class="cls-2" d="M53.79,63.31l-1.93-1.94a.29.29,0,0,1-.07-.32.29.29,0,0,1,.27-.18h2.56a.29.29,0,0,0,.29-.29V58a.28.28,0,0,1,.18-.27.29.29,0,0,1,.32.06l1.93,1.94a.25.25,0,0,1,.09.2V63.1a.29.29,0,0,1-.29.29H54A.32.32,0,0,1,53.79,63.31Z"/><path class="cls-2" d="M61.64,64l1.94,1.93a.29.29,0,0,1,.06.32.27.27,0,0,1-.27.18H60.82a.3.3,0,0,0-.29.3v2.55a.29.29,0,0,1-.18.27.29.29,0,0,1-.32-.06l-1.94-1.94a.28.28,0,0,1-.08-.2V64.21a.29.29,0,0,1,.29-.29h3.14A.24.24,0,0,1,61.64,64Z"/><path class="cls-2" d="M32.61,63.31l1.93-1.94a.29.29,0,0,0,.07-.32.29.29,0,0,0-.27-.18H31.78a.29.29,0,0,1-.29-.29V58a.28.28,0,0,0-.18-.27.29.29,0,0,0-.32.06l-1.93,1.94A.25.25,0,0,0,29,60V63.1a.29.29,0,0,0,.29.29H32.4A.32.32,0,0,0,32.61,63.31Z"/><path class="cls-2" d="M24.76,64l-1.94,1.93a.29.29,0,0,0-.06.32.27.27,0,0,0,.27.18h2.55a.3.3,0,0,1,.29.3v2.55a.29.29,0,0,0,.18.27.29.29,0,0,0,.32-.06l1.94-1.94a.28.28,0,0,0,.08-.2V64.21a.29.29,0,0,0-.29-.29H25A.24.24,0,0,0,24.76,64Z"/><path class="cls-2" d="M24.76,63.31l-1.94-1.94a.29.29,0,0,1,.21-.5h2.55a.29.29,0,0,0,.29-.29V58a.29.29,0,0,1,.5-.21l1.94,1.94a.24.24,0,0,1,.08.2V63.1a.29.29,0,0,1-.29.29H25A.28.28,0,0,1,24.76,63.31Z"/><path class="cls-2" d="M32.61,64l1.93,1.93a.3.3,0,0,1,.07.32.28.28,0,0,1-.27.18H31.78a.3.3,0,0,0-.29.3v2.55a.29.29,0,0,1-.5.21l-1.93-1.94a.25.25,0,0,1-.09-.2V64.21a.29.29,0,0,1,.29-.29H32.4A.28.28,0,0,1,32.61,64Z"/><path class="cls-2" d="M47.08,63.31,49,61.37a.27.27,0,0,0,.06-.32.28.28,0,0,0-.27-.18H46.25a.29.29,0,0,1-.29-.29V58a.28.28,0,0,0-.18-.27.29.29,0,0,0-.32.06l-1.94,1.94a.28.28,0,0,0-.08.2V63.1a.29.29,0,0,0,.29.29h3.14A.32.32,0,0,0,47.08,63.31Z"/><path class="cls-2" d="M39.22,64l-1.93,1.93a.28.28,0,0,0-.06.32.26.26,0,0,0,.27.18h2.55a.3.3,0,0,1,.29.3v2.55a.29.29,0,0,0,.18.27.29.29,0,0,0,.32-.06l1.94-1.94a.28.28,0,0,0,.08-.2V64.21a.29.29,0,0,0-.29-.29H39.43A.28.28,0,0,0,39.22,64Z"/><path class="cls-2" d="M39.22,63.31l-1.93-1.94a.27.27,0,0,1-.06-.32.28.28,0,0,1,.27-.18h2.55a.29.29,0,0,0,.29-.29V58a.28.28,0,0,1,.18-.27.29.29,0,0,1,.32.06l1.94,1.94a.28.28,0,0,1,.08.2V63.1a.29.29,0,0,1-.29.29H39.43A.32.32,0,0,1,39.22,63.31Z"/><path class="cls-2" d="M47.08,64,49,65.93a.28.28,0,0,1,.06.32.27.27,0,0,1-.27.18H46.25a.3.3,0,0,0-.29.3v2.55a.29.29,0,0,1-.18.27.29.29,0,0,1-.32-.06l-1.94-1.94a.28.28,0,0,1-.08-.2V64.21a.29.29,0,0,1,.29-.29h3.14A.28.28,0,0,1,47.08,64Z"/></g></svg>