<svg xmlns="http://www.w3.org/2000/svg" viewBox="0 0 86.9 86.9"><defs><style>.cls-1{fill:#fff;}.cls-2{fill:#d10c0c;fill-rule:evenodd;}</style></defs><title>Zeichenfläche 2</title><g id="Ńëîé_1" data-name="Ńëîé 1"><rect class="cls-1" x="0.5" y="0.5" width="86.4" height="86.4"/><path class="cls-2" d="M57.46,47.54a3.34,3.34,0,0,1-2.07-3.89l2.08-9a3.34,3.34,0,1,0-3.25-.75l-2,8.61a3.35,3.35,0,0,1-3.78,2.56l-.3,0a3.33,3.33,0,0,1-2.86-3.31V32.89a3.26,3.26,0,1,0-3.18,0v8.83A3.33,3.33,0,0,1,39.25,45l-.3,0a3.35,3.35,0,0,1-3.78-2.56l-2-8.61a3.33,3.33,0,1,0-3.25.75l2.08,9a3.34,3.34,0,0,1-2.08,3.89l-.2.08A3.35,3.35,0,0,1,25.51,46l-4.05-8.3a3.33,3.33,0,1,0-3,1.46L28,58.7a3.55,3.55,0,0,0,3.73,2,95.58,95.58,0,0,1,23.9,0,3.56,3.56,0,0,0,3.73-2l9.55-19.58a3.34,3.34,0,1,0-3-1.46l-4,8.3a3.35,3.35,0,0,1-4.22,1.66Z"/></g></svg>