<svg xmlns="http://www.w3.org/2000/svg" viewBox="0 0 86.4 86.4"><defs><style>.cls-1{fill:#fff;}.cls-2{fill:#d10c0c;fill-rule:evenodd;}</style></defs><title>Zeichenfläche 4</title><g id="Ńëîé_1" data-name="Ńëîé 1"><rect class="cls-1" width="86.4" height="86.4"/><path class="cls-2" d="M62.84,28.43V55.52A12.14,12.14,0,0,0,59.35,55a12,12,0,0,0-12,12,11.32,11.32,0,0,0,.13,1.74H28.75a10.71,10.71,0,0,1,0-21.41h8.58V28.43a6.87,6.87,0,0,1-3.46-1.66,5.9,5.9,0,0,1-2-4.43V19.52a5.94,5.94,0,0,1,2-4.44,7.11,7.11,0,0,1,4.73-1.76h23a7.11,7.11,0,0,1,4.73,1.76,5.94,5.94,0,0,1,2,4.44v2.82a5.9,5.9,0,0,1-2,4.43,6.87,6.87,0,0,1-3.46,1.66Zm2.53-12.29ZM33.22,19.52v2.82a4.52,4.52,0,0,0,1.58,3.38,5.71,5.71,0,0,0,3.8,1.41h23a5.71,5.71,0,0,0,3.8-1.41,4.51,4.51,0,0,0,1.57-3.38V19.52a4.51,4.51,0,0,0-1.57-3.38,5.71,5.71,0,0,0-3.8-1.41h-23a5.71,5.71,0,0,0-3.8,1.41,4.52,4.52,0,0,0-1.58,3.38ZM44.15,34.36ZM42.06,38Zm.16,1.67Zm-.41.42Zm4.69,8.53Zm3.38-.51Zm8-8.07Zm-1.28-2.26Zm-1.09-3.42ZM54,32.77Zm-.77-1.3Zm-3.79.93v2.51l-.14.06-1.7-1.7c-.09-.09.08-.15.17-.48a1.07,1.07,0,1,0-1.18.79.08.08,0,0,1,.07.08v2.4l-.14.07-1.78-1.77a.41.41,0,0,0-.58.58l1.78,1.77-.06.14h-2.4c-.16,0,0-.26-.35-.63A1.07,1.07,0,1,0,42.06,38a1.05,1.05,0,0,0,.91-.18.08.08,0,0,1,.11,0l1.71,1.69-.06.14H42.22a.41.41,0,0,0-.41.42.42.42,0,0,0,.41.41h2.51l.06.14-1.7,1.71c-.09.09-.15-.09-.48-.17a1.06,1.06,0,1,0,.77,1.29l0-.12a.08.08,0,0,1,.08-.07h2.41l.06.14-1.77,1.78a.42.42,0,0,0,.59.59L46.54,44l.14,0v2.41c0,.16-.25,0-.63.35a1.06,1.06,0,0,0,.45,1.82h0a1.15,1.15,0,0,0,.8-.12,1.07,1.07,0,0,0,.3-1.56.09.09,0,0,1,0-.11l1.7-1.71.13.06v2.5a.42.42,0,0,0,.42.42.41.41,0,0,0,.41-.42v-2.5l.14-.06,1.71,1.69c.09.09-.1.17-.17.49a1.06,1.06,0,1,0,1.23-.78l-.06,0a.07.07,0,0,1-.07-.08V44l.14-.06L55,45.71c.39.38,1-.21.59-.59l-1.78-1.77s-.08-.14.06-.14h2.4c.16,0,0,.26.35.63a1.06,1.06,0,1,0,.15-1.56.08.08,0,0,1-.11,0l-1.71-1.7.06-.14h2.51a.42.42,0,1,0,0-.83H55l-.06-.14,1.7-1.71c.09-.09.15.1.48.18a1.07,1.07,0,1,0-.79-1.18.08.08,0,0,1-.08.07H53.82l-.06-.14,1.77-1.78a.41.41,0,0,0-.59-.58l-1.77,1.78L53,36.05v-2.4c0-.17.26,0,.64-.35a1.15,1.15,0,0,0,.32-.53,1.07,1.07,0,1,0-1.89.38.08.08,0,0,1,0,.11L50.39,35s-.14.08-.14-.05V32.4a.41.41,0,0,0-.41-.41.4.4,0,0,0-.42.41Zm.86,3.85a.07.07,0,0,0,0,.06v2.52l.13.06,1.78-1.79a.09.09,0,0,0,0-.06V34.52l-.14-.06-1.78,1.79ZM51,39.48l.06.13h2.52a.06.06,0,0,0,.06,0l1.78-1.79-.06-.14H52.83l-.06,0L51,39.48Zm-1.56-3.17,0-.05-1.79-1.78-.13.06v2.52a.09.09,0,0,0,0,.06l1.79,1.77.14-.06V36.31Zm-.78,4.14H46.14l-.06,0L44.3,42.27l.06.14h2.52l.06,0,1.78-1.79-.07-.14Zm.66.72L47.53,43a.09.09,0,0,0,0,.06v2.52l.14.06,1.78-1.79a.14.14,0,0,0,0-.06V41.23l-.13-.06Zm1.74-.73,0,.14,1.79,1.78a0,0,0,0,0,.06,0h2.52c.13,0,.05-.14.05-.14l-1.79-1.78a.07.07,0,0,0-.06,0ZM46.92,37.7l-.06,0H44.34l-.05.14,1.79,1.77a.06.06,0,0,0,.06,0h2.51l.06-.14L46.92,37.7Zm3.38,6.11Zm0-2.58v2.52a.14.14,0,0,0,0,.06l1.79,1.78.14-.07V43s0,0,0-.06l-1.79-1.78Z"/><path class="cls-2" d="M59.35,56.41A10.55,10.55,0,0,0,48.8,67a11.14,11.14,0,0,0,.14,1.74h5a8.92,8.92,0,0,0,8.9-8.89V57A10.65,10.65,0,0,0,59.35,56.41Z"/></g></svg>