<svg xmlns="http://www.w3.org/2000/svg" viewBox="0 0 86.4 86.4"><defs><style>.cls-1,.cls-3{fill:#fff;}.cls-2{fill:#d10c0c;}.cls-2,.cls-3{fill-rule:evenodd;}</style></defs><title>Zeichenfläche 20</title><g id="Ńëîé_1" data-name="Ńëîé 1"><rect class="cls-1" width="86.4" height="86.4"/><path class="cls-2" d="M43.2,28.69c3.49-6,7-9,14-9,7.71,0,14,5.39,14,12,0,11.41-12.56,22.83-25.77,34.24a3.31,3.31,0,0,1-4.34,0C27.82,54.52,15.26,43.1,15.26,31.69c0-6.64,6.26-12,14-12C36.21,19.66,39.71,22.67,43.2,28.69Z"/><path class="cls-3" d="M42.61,38.9v3.47l-.19.09L40,40a.11.11,0,0,1,0-.08V36.46l.19-.09,2.46,2.45,0,.08Zm-3.93-3.76Zm-3.35,1.07Zm2.46,3.25Zm-5.33,1.73Zm.22,2.3Zm-.57.57Zm6.46,11.76Zm1.79-1.06Zm2.3-.22Zm.57.57Zm4.48-2.19ZM54.28,44Zm-1.77-3.1ZM51,36.16ZM48.88,34Zm-1.06-1.79Zm-5.41,4.82-2.35-2.34c-.12-.12.11-.2.24-.66a1.47,1.47,0,1,0-1.62,1.09.1.1,0,0,1,.09.11v3.31l-.19.09-2.45-2.44a.57.57,0,0,0-.81.8l2.46,2.45-.08.19H34.4c-.23,0,0-.36-.48-.87a1.47,1.47,0,1,0-1.46,2.4l.66,0c.53-.11.61-.4.74-.26l2.35,2.33-.07.2H32.68a.57.57,0,1,0,0,1.14h3.45l.09.19-2.34,2.35c-.12.13-.21-.12-.67-.23a1.47,1.47,0,1,0,1.06,1.78l0-.17a.1.1,0,0,1,.11-.09h3.31l.08.19-2.43,2.45a.57.57,0,0,0,.81.8l2.43-2.45.2.08v3.31c0,.23-.36,0-.87.48a1.47,1.47,0,0,0,.61,2.52h0a1.56,1.56,0,0,0,1.09-.17,1.45,1.45,0,0,0,.68-.9c.23-.92-.41-1.23-.25-1.4L42.45,51s.19-.11.19.08l0,3.45a.57.57,0,0,0,.57.57.58.58,0,0,0,.57-.57V51.09L44,51l2.35,2.34c.13.13-.14.23-.23.67a1.46,1.46,0,1,0,1.7-1.08h-.09a.12.12,0,0,1-.09-.12V49.49l.19-.08,2.45,2.43a.57.57,0,0,0,.8-.81L48.6,48.6s-.1-.2.08-.2H52c.23,0,0,.36.48.88a1.47,1.47,0,1,0,.21-2.16.11.11,0,0,1-.15,0l-2.35-2.34.07-.19h3.46a.59.59,0,0,0,.57-.58.58.58,0,0,0-.58-.57H50.26l-.09-.19,2.34-2.35c.12-.13.22.13.66.24a1.47,1.47,0,1,0-1.09-1.62.1.1,0,0,1-.11.09H48.66l-.09-.19L51,37a.58.58,0,0,0,0-.81.57.57,0,0,0-.81,0l-2.43,2.45-.2-.08V35.23c0-.23.36,0,.87-.48a1.53,1.53,0,0,0,.45-.73,1.47,1.47,0,1,0-2.6.52.1.1,0,0,1,0,.15l-2.33,2.36s-.2.1-.2-.08V33.51a.57.57,0,0,0-.56-.57.58.58,0,0,0-.58.58V37l-.19.09Zm1.35,5.32V38.9a.11.11,0,0,1,0-.08l2.45-2.47.19.08V39.9a.08.08,0,0,1,0,.09L44,42.45l-.19-.08Zm3.45-1.58Zm-2.45,2.47,2.45-2.47a.11.11,0,0,1,.08,0h3.47l.09.19L48.4,43.41a.11.11,0,0,1-.08,0H44.85l-.09-.19ZM40,48.06l2.45-2.46.19.08v3.47a.11.11,0,0,1,0,.08L40.16,51.7l-.2-.08V48.15a.12.12,0,0,1,0-.09Zm-.83-7.24s-.06,0-.09,0H35.6c-.18,0-.08.19-.08.19L38,43.44a.11.11,0,0,0,.08,0h3.47l.08-.19-2.46-2.45Zm-1.09,3.79h3.47l.09.19-2.45,2.47-.08,0H35.63l-.09-.19L38,44.65a.12.12,0,0,1,.08,0Zm6.78,0h3.47a.11.11,0,0,1,.08,0l2.47,2.45s.1.2-.08.2H47.32a.12.12,0,0,1-.09,0l-2.46-2.45.08-.19Zm-1,4.64Zm0-.08V45.68l.19-.09L46.43,48l0,.08v3.47l-.19.09-2.47-2.45A.11.11,0,0,1,43.78,49.15Z"/></g></svg>