<svg xmlns="http://www.w3.org/2000/svg" viewBox="0 0 86.4 86.4"><defs><style>.cls-1{fill:#d10c0c;}.cls-2{fill:#fefefe;fill-rule:evenodd;}</style></defs><title>Zeichenfläche 23</title><g id="Ńëîé_1" data-name="Ńëîé 1"><rect class="cls-1" width="86.4" height="86.4"/><path class="cls-2" d="M42,32.8l0,7-.39.18-5-5a.22.22,0,0,1-.07-.16l0-7,.39-.17,5,5,.07.16Zm-8-7.64Zm-6.78,2.18Zm5,6.58ZM21.41,37.44Zm.45,4.66ZM20.7,43.26ZM33.81,67.12ZM37.43,65Zm4.67-.44Zm1.16,1.15Zm9.1-4.45Zm13.32-18.1Zm-3.59-6.3ZM59,27.25ZM54.71,22.9Zm-2.14-3.63ZM41.6,29,36.83,24.3c-.25-.25.23-.41.48-1.35A3,3,0,1,0,34,25.16a.24.24,0,0,1,.2.23l0,6.72-.39.17-5-4.94A1.16,1.16,0,0,0,27.24,29l5,5-.16.39-6.72,0c-.45,0,0-.72-1-1.76a3,3,0,1,0-3,4.87l1.33,0c1.08-.22,1.24-.8,1.51-.53L29,41.69l-.16.39-7,0a1.16,1.16,0,1,0,0,2.32l7,0,.18.39-4.75,4.77c-.25.25-.43-.25-1.35-.48a3,3,0,1,0,2.15,3.62l.07-.34a.21.21,0,0,1,.22-.19l6.72,0,.17.38-4.94,5A1.16,1.16,0,0,0,29,59.14l4.94-5,.39.16,0,6.72c0,.45-.72,0-1.77,1a3,3,0,0,0,1.25,5.1l0,0a3.12,3.12,0,0,0,2.21-.34A3,3,0,0,0,37.43,65c.48-1.86-.83-2.5-.49-2.84l4.75-4.77s.38-.21.39.16l0,7a1.16,1.16,0,1,0,2.31,0l0-7,.39-.17,4.78,4.74c.25.26-.28.46-.49,1.35a3,3,0,1,0,3.46-2.18l-.17,0a.23.23,0,0,1-.2-.22l0-6.73.39-.17,5,4.94a1.16,1.16,0,0,0,1.63-1.64l-5-4.94s-.21-.39.16-.39l6.72,0c.45,0,0,.72,1,1.77a3,3,0,1,0,.43-4.37.24.24,0,0,1-.31,0L57.35,44.7l.16-.39,7,0a1.16,1.16,0,1,0,0-2.32l-7,0-.18-.38,4.75-4.78c.25-.25.45.27,1.35.48A3,3,0,1,0,61.23,34a.23.23,0,0,1-.23.19l-6.72,0-.17-.38,4.94-5a1.15,1.15,0,0,0,0-1.63,1.16,1.16,0,0,0-1.64,0l-4.94,5-.39-.16,0-6.71c0-.46.72,0,1.77-1a3,3,0,0,0-1.25-5.1A3,3,0,0,0,49.45,24a.23.23,0,0,1,0,.31L44.69,29s-.38.22-.38-.16l0-7a1.16,1.16,0,0,0-1.14-1.15A1.14,1.14,0,0,0,42,21.87l0,7L41.6,29Zm2.74,10.8,0-7a.23.23,0,0,1,.06-.18l5-5,.39.16,0,7a.18.18,0,0,1-.06.17l-5,5-.39-.17Zm7-3.2Zm-5,5,5-5a.24.24,0,0,1,.16-.07l7,0,.18.39-5,5a.22.22,0,0,1-.16.07l-7,0-.17-.39Zm-9.69,9.75,5-5,.39.16,0,7a.22.22,0,0,1-.06.17l-5,5-.39-.16,0-7a.18.18,0,0,1,.06-.17ZM35,36.69a.23.23,0,0,0-.17-.07l-7,0c-.38,0-.16.39-.16.39l5,5a.23.23,0,0,0,.17.07l7,0,.16-.39-5-5Zm-2.2,7.7,7,0,.17.39-5,5-.16.07-7,0-.18-.39,5-5a.21.21,0,0,1,.16-.06Zm13.74,0,7,0a.22.22,0,0,1,.17.07l5,5s.22.39-.16.39l-7,0a.23.23,0,0,1-.17-.07l-5-5,.16-.39Zm-2.09,9.41Zm-.07-.16,0-7,.39-.17,5,5,.06.16,0,7-.39.17-5-5A.24.24,0,0,1,44.38,53.59Z"/></g></svg>