<svg xmlns="http://www.w3.org/2000/svg" viewBox="0 0 86.4 86.4"><defs><style>.cls-1{fill:#d10c0c;}.cls-2{fill:#fefefe;fill-rule:evenodd;}</style></defs><title>Zeichenfläche 3</title><g id="Ńëîé_1" data-name="Ńëîé 1"><rect class="cls-1" width="86.4" height="86.4"/><path class="cls-2" d="M39.2,17h8A4.07,4.07,0,0,0,46,14.35a4,4,0,0,0-5.68,0A4.07,4.07,0,0,0,39.2,17ZM53.08,48,58,43a.74.74,0,0,0,.16-.82.72.72,0,0,0-.68-.47H51a.75.75,0,0,1-.74-.75V34.4a.75.75,0,0,0-.46-.7.7.7,0,0,0-.8.16l-4.89,5a.77.77,0,0,0-.22.54v8.1a.75.75,0,0,0,.74.75h7.93a.67.67,0,0,0,.52-.22ZM33.25,49.81l-4.89,5a.74.74,0,0,0-.16.82.71.71,0,0,0,.68.47h6.45a.75.75,0,0,1,.74.76v6.58a.73.73,0,0,0,.46.7.7.7,0,0,0,.8-.16l4.89-5a.76.76,0,0,0,.21-.54V50.35a.75.75,0,0,0-.73-.76H33.77a.71.71,0,0,0-.52.22Zm0-1.79-4.89-5a.74.74,0,0,1-.16-.82.72.72,0,0,1,.68-.47h6.45a.75.75,0,0,0,.74-.75V34.4a.74.74,0,0,1,.46-.7.7.7,0,0,1,.8.16l4.89,5a.76.76,0,0,1,.21.54v8.1a.74.74,0,0,1-.73.75H33.77a.67.67,0,0,1-.52-.22Zm19.83,1.79,4.89,5a.76.76,0,0,1-.52,1.29H51a.75.75,0,0,0-.74.76v6.58a.74.74,0,0,1-.46.7A.7.7,0,0,1,49,64l-4.89-5a.77.77,0,0,1-.22-.54V50.35a.76.76,0,0,1,.74-.76h7.93a.73.73,0,0,1,.52.22ZM43.2,25.47a22.24,22.24,0,0,1,5.51.69v-6a1.09,1.09,0,0,0-.3-.77h0a1,1,0,0,0-.74-.32H38a.93.93,0,0,0-.27.67v6.18a22.24,22.24,0,0,1,5.51-.69Zm7.56,1.31A23.37,23.37,0,0,1,43.2,72.06a23.37,23.37,0,0,1-7.56-45.28V20a3,3,0,0,1,.86-2.1,2.84,2.84,0,0,1,1.07-.7,5.73,5.73,0,0,1,1.65-4,5.58,5.58,0,0,1,8,0,5.72,5.72,0,0,1,1.65,4v0h0a3.1,3.1,0,0,1,1,.7,3.17,3.17,0,0,1,.91,2.22Z"/></g></svg>