<svg xmlns="http://www.w3.org/2000/svg" viewBox="0 0 86.4 86.4"><defs><style>.cls-1{fill:#d10c0c;}.cls-2{fill:#fefefe;fill-rule:evenodd;}</style></defs><title>Zeichenfläche 19</title><g id="Ńëîé_1" data-name="Ńëîé 1"><rect class="cls-1" width="86.4" height="86.4"/><path class="cls-2" d="M14.09,36.13a17.39,17.39,0,0,0-2.28,0,18.08,18.08,0,0,0-1.83.19c-.53.07-1.09.17-1.71.28a21,21,0,0,0,4.33,8.18A10.61,10.61,0,0,0,19,48.68a9.91,9.91,0,0,0,2.83-.29,9.48,9.48,0,0,1,4.18-.19c2.7.75,4.58,4.32,5.87,8.23a71.13,71.13,0,0,1,2.31,10c.15.91.28,1.78.4,2.63.82,5.68,1.45,10.06,8.54,9.62h.06c7.09.44,7.72-3.94,8.54-9.62.12-.85.25-1.72.4-2.63a71.13,71.13,0,0,1,2.31-10c1.29-3.91,3.17-7.48,5.87-8.23a9.48,9.48,0,0,1,4.18.19,9.91,9.91,0,0,0,2.83.29,10.61,10.61,0,0,0,6.44-3.91,21,21,0,0,0,4.33-8.18c-.62-.11-1.18-.21-1.71-.28a18.08,18.08,0,0,0-1.83-.19,17.39,17.39,0,0,0-2.28,0c-.81.06-1.71.16-2.8.32-4.68.7-6.11,2.18-7.4,3.53a8,8,0,0,1-3,2.21,3.87,3.87,0,0,0,0-.48,4.08,4.08,0,0,0-3.76-4.05c.35-.23.68-.49,1-.75a25.57,25.57,0,0,0,2.28-2,8.89,8.89,0,0,0,3.89.88,11.78,11.78,0,0,0,5.13-1.16,12.16,12.16,0,0,0,3.54-2.52,9.52,9.52,0,0,0,2.17-3.45,1.08,1.08,0,1,0-2-.71,7.47,7.47,0,0,1-1.7,2.66,10,10,0,0,1-2.89,2.06,9.64,9.64,0,0,1-4.2,1,7,7,0,0,1-2.37-.41,28.76,28.76,0,0,0,2.38-3.41c.16-.28.32-.56.47-.84a8.39,8.39,0,0,0,2.82-1.23,11,11,0,0,0,4-4.93,9.77,9.77,0,0,0,.64-2.44,1.09,1.09,0,0,0-2.16-.26,7.62,7.62,0,0,1-.5,1.9,8.62,8.62,0,0,1-3.18,3.92l-.26.17A23.59,23.59,0,0,0,66.16,18,14.21,14.21,0,0,0,63,8.05a1.09,1.09,0,0,0-1.64,1.43A12.13,12.13,0,0,1,64,17.91a20.81,20.81,0,0,1-.9,5.36,15.73,15.73,0,0,0-1.54-4.54,15.12,15.12,0,0,0-4.33-5.2,11,11,0,0,0-5.74-2.26,1.09,1.09,0,0,0-.14,2.17,8.79,8.79,0,0,1,4.58,1.83,13,13,0,0,1,3.41,3.9,6.7,6.7,0,0,1-3,.82,9.76,9.76,0,0,1-4.23-.81,9.86,9.86,0,0,1-3-2,7.41,7.41,0,0,1-1.78-2.61,1.08,1.08,0,1,0-2,.79,9.62,9.62,0,0,0,2.29,3.37,12.2,12.2,0,0,0,8.79,3.39,8.9,8.9,0,0,0,3.88-1,12.85,12.85,0,0,1,.78,3.15,10.18,10.18,0,0,1-.37,4.26,1,1,0,0,0,0,.24c-.29.49-.6,1-.92,1.43a11.34,11.34,0,0,0-.32-2.43,3.23,3.23,0,1,0-5.49-2.3v.08l-10.7-2.3L33.39,36.61a16.9,16.9,0,0,1-2-1.41c-.56-.44-1.11-.92-1.64-1.43l0,0a6.36,6.36,0,0,1-.79-2.55,8.53,8.53,0,0,1,.26-3,9.28,9.28,0,0,1,.77-1.92,8.19,8.19,0,0,1,1.15-1.59,1.07,1.07,0,0,0,0-1.53,1.09,1.09,0,0,0-1.53,0,9.81,9.81,0,0,0-1.49,2,11,11,0,0,0-1,2.41,11.26,11.26,0,0,0-.37,2.62c-.32-.46-.63-.94-.92-1.43a1,1,0,0,0-.05-.24,10.18,10.18,0,0,1-.37-4.26,13.32,13.32,0,0,1,.78-3.15,8.9,8.9,0,0,0,3.88,1,12.16,12.16,0,0,0,8.79-3.39,9.62,9.62,0,0,0,2.29-3.37,1.08,1.08,0,1,0-2-.79,7.41,7.41,0,0,1-1.78,2.61,9.86,9.86,0,0,1-3,2A9.76,9.76,0,0,1,30.1,20a6.63,6.63,0,0,1-3-.82,12.93,12.93,0,0,1,3.34-3.85l.06-.05a8.79,8.79,0,0,1,4.58-1.83,1.09,1.09,0,0,0-.14-2.17,11,11,0,0,0-5.74,2.26l-.07.06a15.23,15.23,0,0,0-4.26,5.14,15.41,15.41,0,0,0-1.53,4.54,20,20,0,0,1-.9-5.36A12.08,12.08,0,0,1,25,9.48a1.09,1.09,0,0,0-1.64-1.43A14.21,14.21,0,0,0,20.24,18,23.59,23.59,0,0,0,22,26l-.26-.17A8.62,8.62,0,0,1,18.54,22a7.62,7.62,0,0,1-.5-1.9,1.09,1.09,0,1,0-2.16.26,9.77,9.77,0,0,0,.64,2.44,11,11,0,0,0,4,4.93,8.48,8.48,0,0,0,2.82,1.23c.15.28.31.56.47.84a27.7,27.7,0,0,0,2.39,3.41,7.08,7.08,0,0,1-2.38.41,9.64,9.64,0,0,1-4.2-1,10,10,0,0,1-2.89-2.06A7.61,7.61,0,0,1,15,27.9a1.08,1.08,0,1,0-2,.71,9.52,9.52,0,0,0,2.17,3.45,12.16,12.16,0,0,0,3.54,2.52,11.82,11.82,0,0,0,5.14,1.16,8.88,8.88,0,0,0,3.88-.88,25.57,25.57,0,0,0,2.28,2c.34.26.67.52,1,.75a4.07,4.07,0,0,0-3.75,4.05,3.85,3.85,0,0,0,0,.48,8,8,0,0,1-3-2.21c-1.29-1.35-2.72-2.83-7.4-3.53-1.08-.16-2-.26-2.8-.32Zm35.7,33.1a.34.34,0,0,1,.44-.23.36.36,0,0,1,.23.44,7.61,7.61,0,0,1-7.26,5.31A7.62,7.62,0,0,1,36,69.45a.35.35,0,0,1,.22-.44.36.36,0,0,1,.44.23,6.92,6.92,0,0,0,6.59,4.81,6.94,6.94,0,0,0,6.59-4.82ZM43.2,65.38c2.63,0,4.76,1.31,4.76,2.93s-2.13,2.92-4.76,2.92-4.76-1.31-4.76-2.92,2.13-2.93,4.76-2.93ZM41.54,47.53h0a.8.8,0,0,1,0,1.13L38.66,51.3a.8.8,0,0,1-1.13,0h0a.8.8,0,0,1,0-1.13l2.84-2.64a.8.8,0,0,1,1.13,0Zm3.32,0a.8.8,0,0,1,1.13,0l2.84,2.64a.8.8,0,0,1,0,1.13h0a.8.8,0,0,1-1.13,0L44.9,48.66a.8.8,0,0,1,0-1.13Zm-4.22,4.24a1.31,1.31,0,1,1-1.31,1.31,1.31,1.31,0,0,1,1.31-1.31Zm5.48,0a1.31,1.31,0,1,1-1.3,1.31,1.31,1.31,0,0,1,1.3-1.31Zm11-28.67a2.39,2.39,0,1,1-2.39,2.39,2.39,2.39,0,0,1,2.39-2.39Zm.24,5.61a8.35,8.35,0,0,1,.13,2.48,6.21,6.21,0,0,1-.79,2.55v0c-.54.51-1.08,1-1.65,1.43a16.9,16.9,0,0,1-2,1.41L43.2,23.27l6.34,8.62,5.43-4a3.24,3.24,0,0,0,2.16.83Zm-26,10.08H55.08A2.92,2.92,0,0,1,58,41.71h0a2.92,2.92,0,0,1-2.92,2.92H31.32a2.92,2.92,0,0,1-2.92-2.92h0A2.92,2.92,0,0,1,31.32,38.79Z"/></g></svg>