<svg xmlns="http://www.w3.org/2000/svg" viewBox="0 0 86.4 86.4"><defs><style>.cls-1{fill:#d10c0c;}.cls-2{fill:#fefefe;fill-rule:evenodd;}</style></defs><title>Zeichenfläche 17</title><g id="Ńëîé_1" data-name="Ńëîé 1"><rect class="cls-1" width="86.4" height="86.4"/><path class="cls-2" d="M25.39,43H61.58V63.57a6.5,6.5,0,0,1-6.48,6.48H31.3a6.5,6.5,0,0,1-6.48-6.48V43Zm35.06,1.13H26V63.57a5.36,5.36,0,0,0,5.35,5.35H55.1a5.36,5.36,0,0,0,5.35-5.35Z"/><path class="cls-2" d="M25,34H61.72a2.88,2.88,0,0,1,2,.85h0a2.88,2.88,0,0,1,.85,2.05v5.62H21.79v-5.3A3.23,3.23,0,0,1,25,34Zm36.72,1.13H25a2.11,2.11,0,0,0-1.47.61,2.09,2.09,0,0,0-.62,1.48v4.17H63.48V36.85A1.75,1.75,0,0,0,63,35.6h0A1.78,1.78,0,0,0,61.72,35.08Z"/><path class="cls-2" d="M35.52,32.66c-.41-.15-.83-.32-1.26-.5C30.09,30.4,26.9,28,23.09,26.58c-6.35-2.28-10.49-1.83-16.58,1L10.09,35c7.73-4.83,19.22-1.43,28.19-.27V69.49h9.84V34.76c9-1.16,20.46-4.56,28.19.27l3.58-7.47c-6.09-2.81-10.23-3.26-16.58-1-3.81,1.37-7,3.82-11.17,5.58l-1.27.51C56.8,30.06,63,22.75,57.76,17.91c-5.66-5.18-13.34,3.63-14.56,10-1.22-6.4-8.9-15.21-14.56-10-5.28,4.84,1,12.15,6.88,14.75Zm5.4-1.31c-2.66,2.43-11.87-4.37-7.6-8.29s10.26,5.85,7.6,8.29Zm4.56,0c-2.66-2.44,3.44-12.09,7.6-8.29S48.14,33.78,45.48,31.35Z"/></g></svg>