<svg xmlns="http://www.w3.org/2000/svg" viewBox="0 0 86.4 86.4"><defs><style>.cls-1{fill:#d10c0c;}.cls-2{fill:#fefefe;fill-rule:evenodd;}</style></defs><title>Zeichenfläche 25</title><g id="Ńëîé_1" data-name="Ńëîé 1"><rect class="cls-1" width="86.4" height="86.4"/><path class="cls-2" d="M55.07,33c-1.46-1.32-2.84-2.58-4.14-3.86h-.82c-.08,0-.09.17-.25.34a2.09,2.09,0,0,1-1.48.87c-1,0-1.7-1.65-1.72-1.65s-.75,1.65-1.73,1.65-1.7-1.65-1.72-1.65-.75,1.65-1.73,1.65-1.7-1.65-1.72-1.65S39,30.31,38,30.31a2.11,2.11,0,0,1-1.48-.87c-.16-.17-.17-.34-.25-.34h-.8c-1.33,1.33-2.73,2.6-4.18,3.88-4.14,3.74-6.74,7.26-8,10.68H63.08c-1.36-3.78-4.25-7.3-8-10.7ZM45.56,47h0a2,2,0,0,1,1.44.6h0A2,2,0,0,1,47.6,49h0a2,2,0,0,1-3.48,1.44h0a2,2,0,0,1,0-2.88l0,0A2,2,0,0,1,45.56,47Zm5.15,0h0a2,2,0,0,1,1.44.6l0,0A2,2,0,0,1,52.75,49h0a2,2,0,0,1-2,2h0a2,2,0,0,1-1.44-.6h0a2,2,0,0,1,0-2.88l0,0A2,2,0,0,1,50.71,47Zm5.15,0h0a2,2,0,0,1,2,2h0a2,2,0,1,1-3.48-1.44l0,0A2,2,0,0,1,55.86,47ZM61,47h0a2,2,0,0,1,1.44.6h0A2.07,2.07,0,0,1,63.05,49a2,2,0,0,1-.6,1.44l0,0a2,2,0,0,1-2.85,0h0A2,2,0,0,1,59,49h0a2,2,0,0,1,.59-1.44l0,0A2.06,2.06,0,0,1,61,47ZM25.39,47h0a2,2,0,0,1,1.44.6h0a2,2,0,1,1-2.88,0l0,0A2,2,0,0,1,25.39,47Zm5.15,0h0a2,2,0,0,1,1.44.6l0,0a2,2,0,0,1,0,2.85h0a2,2,0,1,1-2.88-2.88h0A2,2,0,0,1,30.54,47Zm5.15,0h0a2,2,0,0,1,1.44.6h0a2,2,0,1,1-2.89,0l0,0A2,2,0,0,1,35.69,47Zm5.15,0h0a2,2,0,0,1,1.44.6h0a2,2,0,0,1,0,2.88h0a2,2,0,1,1-2.88-2.88h0a2,2,0,0,1,1.44-.6ZM22.92,45a13.89,13.89,0,0,0,.22,7.82H63.26c-.12.4-.25.79-.41,1.19a14.33,14.33,0,0,0,.62-9.09l0,.08Zm.69,9.14c.11.28.23.56.35.84,2.81,6.22,6.63,9.58,11.95,13.2a21.58,21.58,0,0,1,5.85,5.16,1.81,1.81,0,0,0,2.9,0c2.87-3.88,6.34-5.06,10.44-8.6A26.59,26.59,0,0,0,62.45,55l.38-.9,0,.06Z"/><path class="cls-2" d="M43.21,12.35A6.08,6.08,0,0,1,47.41,14a5.57,5.57,0,0,1,1.74,4A5.8,5.8,0,0,1,49,19.14,2.11,2.11,0,0,1,50.11,21v7.29c-.58,0-1.15,1.21-1.73,1.21s-1.15-1.65-1.72-1.65-1.15,1.65-1.73,1.65-1.15-1.65-1.72-1.65-1.15,1.65-1.73,1.65-1.15-1.65-1.72-1.65S38.6,29.46,38,29.46s-1.15-1.21-1.73-1.21V20.78a2,2,0,0,1,1.06-1.71,5.16,5.16,0,0,1-.1-1A5.54,5.54,0,0,1,39,14a6,6,0,0,1,4.2-1.66Zm-4.15,6.48h8.29a3.57,3.57,0,0,0,.09-.8,3.9,3.9,0,0,0-1.24-2.85,4.39,4.39,0,0,0-6,0A3.94,3.94,0,0,0,39,18,3.57,3.57,0,0,0,39.06,18.83Z"/></g></svg>