<svg xmlns="http://www.w3.org/2000/svg" viewBox="0 0 86.4 86.4"><defs><style>.cls-1{fill:#d10c0c;}.cls-2,.cls-3{fill:#fefefe;}.cls-2{fill-rule:evenodd;}</style></defs><title>Zeichenfläche 13</title><g id="Ńëîé_1" data-name="Ńëîé 1"><rect class="cls-1" width="86.4" height="86.4"/><path class="cls-2" d="M66.36,62.8V40.65a4.79,4.79,0,0,0-4.78-4.78H24.82A4.79,4.79,0,0,0,20,40.65V62.8a4.79,4.79,0,0,0,4.78,4.78H61.58a4.79,4.79,0,0,0,4.78-4.78Zm-41-7,2.77-4.11-2.66-4H28L29.45,50l1.45-2.28h2.51l-2.65,4,2.77,4.14H31l-1.54-2.44-1.56,2.44Zm9.28,0V47.69H37l1.93,3.13,1.93-3.13H43.2v8.09H41V51.13L38.9,54.3h0L36.8,51.16v4.62Zm9.61,0,3.44-8.15h2.16l3.44,8.15h-2.4l-.59-1.45H47.15l-.57,1.45Zm3.59-3.19.91-2.3.9,2.3Zm9.53,3.33a5.66,5.66,0,0,1-3.79-1.34l1.25-1.49a4.21,4.21,0,0,0,2.62,1c.6,0,.93-.21.93-.58S58.08,53,57,52.71c-1.72-.4-3-.88-3-2.57,0-1.5,1.19-2.59,3.14-2.59a5.06,5.06,0,0,1,3.32,1.08l-1.12,1.58a4.06,4.06,0,0,0-2.26-.8c-.55,0-.81.23-.81.55s.28.53,1.4.78c1.86.41,3,1,3,2.54S59.31,55.92,57.34,55.92Z"/><path class="cls-2" d="M23.2,24.67h40a5,5,0,0,1,4.93,4.93h0a5,5,0,0,1-4.93,4.94h-40a5,5,0,0,1-4.93-4.94h0a5,5,0,0,1,4.93-4.93ZM63.71,29.6a2,2,0,0,0-.6-1.43,2,2,0,0,0-2.86,0,2,2,0,0,0-.6,1.43,2,2,0,0,0,4.06,0Zm-8,1.44a2,2,0,0,0,.6-1.44,2,2,0,0,0-3.47-1.43,2,2,0,0,0-.59,1.43,2,2,0,0,0,2,2A2,2,0,0,0,55.72,31Zm-7.39,0a2,2,0,0,0,.59-1.44,2,2,0,0,0-2-2,2,2,0,0,0-1.44.59,2,2,0,0,0-.59,1.43A2,2,0,0,0,45.46,31a2.07,2.07,0,0,0,1.44.59A2,2,0,0,0,48.33,31Zm-7.39,0a2.07,2.07,0,0,0,.59-1.44,2,2,0,0,0-2-2,2,2,0,0,0-2,2,2,2,0,0,0,2,2A2.07,2.07,0,0,0,40.94,31Zm-7.39,0a2.07,2.07,0,0,0,.59-1.44,2,2,0,0,0-2-2,2,2,0,0,0-1.43.59,2,2,0,0,0-.6,1.43,2,2,0,0,0,2,2A2.07,2.07,0,0,0,33.55,31Zm-7.4,0a2,2,0,0,0,.6-1.44,2,2,0,0,0-.6-1.43,2,2,0,0,0-1.43-.59,2,2,0,0,0-2,2,2,2,0,0,0,2,2A2,2,0,0,0,26.15,31Z"/><rect class="cls-3" x="30.62" y="18.82" width="2.99" height="11.25" rx="1.49"/><path class="cls-2" d="M24.72,18.82h0a1.49,1.49,0,0,1,1.49,1.49v8.27a1.49,1.49,0,0,1-1.49,1.49h0a1.49,1.49,0,0,1-1.49-1.49V20.31A1.49,1.49,0,0,1,24.72,18.82Z"/><rect class="cls-3" x="38.01" y="18.82" width="2.99" height="11.25" rx="1.49"/><rect class="cls-3" x="45.4" y="18.82" width="2.99" height="11.25" rx="1.49"/><rect class="cls-3" x="52.79" y="18.82" width="2.99" height="11.25" rx="1.49"/><rect class="cls-3" x="60.19" y="18.82" width="2.99" height="11.25" rx="1.49"/></g></svg>